solid CATIA STL
  facet normal  0.000000e+000  1.000000e+000  0.000000e+000
    outer loop
      vertex -6.000000e+000  1.800000e+001  3.464102e+000
      vertex  0.000000e+000  1.800000e+001  6.928203e+000
      vertex  1.088737e-002  1.800000e+001  2.749979e+000
    endloop
  endfacet
  facet normal  0.000000e+000  1.000000e+000  0.000000e+000
    outer loop
      vertex -6.000000e+000  1.800000e+001  3.464102e+000
      vertex  1.088737e-002  1.800000e+001  2.749979e+000
      vertex -4.418927e-001  1.800000e+001  2.714264e+000
    endloop
  endfacet
  facet normal  0.000000e+000  9.999999e-001  0.000000e+000
    outer loop
      vertex -6.000000e+000  1.800000e+001  3.464102e+000
      vertex -4.418927e-001  1.800000e+001  2.714264e+000
      vertex -8.826191e-001  1.800000e+001  2.604512e+000
    endloop
  endfacet
  facet normal  0.000000e+000  1.000000e+000  0.000000e+000
    outer loop
      vertex -6.000000e+000  1.800000e+001  3.464102e+000
      vertex -8.826191e-001  1.800000e+001  2.604512e+000
      vertex -1.299270e+000  1.800000e+001  2.423716e+000
    endloop
  endfacet
  facet normal  0.000000e+000  9.999999e-001  0.000000e+000
    outer loop
      vertex -6.000000e+000  1.800000e+001  3.464102e+000
      vertex -1.299270e+000  1.800000e+001  2.423716e+000
      vertex -1.680480e+000  1.800000e+001  2.176806e+000
    endloop
  endfacet
  facet normal  0.000000e+000  1.000000e+000  0.000000e+000
    outer loop
      vertex -6.000000e+000  1.800000e+001  3.464102e+000
      vertex -1.680480e+000  1.800000e+001  2.176806e+000
      vertex -2.015851e+000  1.800000e+001  1.870520e+000
    endloop
  endfacet
  facet normal  0.000000e+000  1.000000e+000  0.000000e+000
    outer loop
      vertex -6.000000e+000  1.800000e+001  3.464102e+000
      vertex -2.015851e+000  1.800000e+001  1.870520e+000
      vertex -2.296235e+000  1.800000e+001  1.513210e+000
    endloop
  endfacet
  facet normal  0.000000e+000  9.999999e-001  0.000000e+000
    outer loop
      vertex -6.000000e+000  1.800000e+001  3.464102e+000
      vertex -2.296235e+000  1.800000e+001  1.513210e+000
      vertex -2.513983e+000  1.800000e+001  1.114624e+000
    endloop
  endfacet
  facet normal  0.000000e+000  1.000000e+000  0.000000e+000
    outer loop
      vertex -6.000000e+000  1.800000e+001  3.464102e+000
      vertex -2.513983e+000  1.800000e+001  1.114624e+000
      vertex -2.663157e+000  1.800000e+001  6.856340e-001
    endloop
  endfacet
  facet normal  0.000000e+000  1.000000e+000  0.000000e+000
    outer loop
      vertex -6.000000e+000  1.800000e+001  3.464102e+000
      vertex -2.663157e+000  1.800000e+001  6.856340e-001
      vertex -2.739687e+000  1.800000e+001  2.379416e-001
    endloop
  endfacet
  facet normal  0.000000e+000  1.000000e+000  0.000000e+000
    outer loop
      vertex -6.000000e+000  1.800000e+001  3.464102e+000
      vertex -2.739687e+000  1.800000e+001  2.379416e-001
      vertex -2.741485e+000  1.800000e+001 -2.162412e-001
    endloop
  endfacet
  facet normal  0.000000e+000  9.999999e-001  0.000000e+000
    outer loop
      vertex -6.000000e+000  1.800000e+001  3.464102e+000
      vertex -2.741485e+000  1.800000e+001 -2.162412e-001
      vertex -2.668503e+000  1.800000e+001 -6.645256e-001
    endloop
  endfacet
  facet normal  0.000000e+000  1.000000e+000  0.000000e+000
    outer loop
      vertex -6.000000e+000  1.800000e+001  3.464102e+000
      vertex -2.668503e+000  1.800000e+001 -6.645256e-001
      vertex -2.522730e+000  1.800000e+001 -1.094683e+000
    endloop
  endfacet
  facet normal  0.000000e+000  1.000000e+000  0.000000e+000
    outer loop
      vertex -6.000000e+000  1.800000e+001  3.464102e+000
      vertex -2.522730e+000  1.800000e+001 -1.094683e+000
      vertex -2.308145e+000  1.800000e+001 -1.494981e+000
    endloop
  endfacet
  facet normal  0.000000e+000  1.000000e+000  0.000000e+000
    outer loop
      vertex -6.000000e+000  1.800000e+001 -3.464102e+000
      vertex -6.000000e+000  1.800000e+001  3.464102e+000
      vertex -2.308145e+000  1.800000e+001 -1.494981e+000
    endloop
  endfacet
  facet normal  0.000000e+000  1.000000e+000  0.000000e+000
    outer loop
      vertex -6.000000e+000  1.800000e+001 -3.464102e+000
      vertex -2.308145e+000  1.800000e+001 -1.494981e+000
      vertex -2.030599e+000  1.800000e+001 -1.854500e+000
    endloop
  endfacet
  facet normal  0.000000e+000  1.000000e+000  0.000000e+000
    outer loop
      vertex -6.000000e+000  1.800000e+001 -3.464102e+000
      vertex -2.030599e+000  1.800000e+001 -1.854500e+000
      vertex -1.697663e+000  1.800000e+001 -2.163432e+000
    endloop
  endfacet
  facet normal  0.000000e+000  1.000000e+000  0.000000e+000
    outer loop
      vertex -6.000000e+000  1.800000e+001 -3.464102e+000
      vertex -1.697663e+000  1.800000e+001 -2.163432e+000
      vertex -1.318420e+000  1.800000e+001 -2.413352e+000
    endloop
  endfacet
  facet normal  0.000000e+000  1.000000e+000  0.000000e+000
    outer loop
      vertex -6.000000e+000  1.800000e+001 -3.464102e+000
      vertex -1.318420e+000  1.800000e+001 -2.413352e+000
      vertex -9.032140e-001  1.800000e+001 -2.597442e+000
    endloop
  endfacet
  facet normal  0.000000e+000  1.000000e+000  0.000000e+000
    outer loop
      vertex -6.000000e+000  1.800000e+001 -3.464102e+000
      vertex -9.032140e-001  1.800000e+001 -2.597442e+000
      vertex -4.633705e-001  1.800000e+001 -2.710680e+000
    endloop
  endfacet
  facet normal  0.000000e+000  1.000000e+000  0.000000e+000
    outer loop
      vertex -6.000000e+000  1.800000e+001 -3.464102e+000
      vertex -4.633705e-001  1.800000e+001 -2.710680e+000
      vertex -1.088737e-002  1.800000e+001 -2.749979e+000
    endloop
  endfacet
  facet normal  0.000000e+000  1.000000e+000  0.000000e+000
    outer loop
      vertex -6.000000e+000  1.800000e+001 -3.464102e+000
      vertex -1.088737e-002  1.800000e+001 -2.749979e+000
      vertex  3.552714e-015  1.800000e+001 -6.928203e+000
    endloop
  endfacet
  facet normal  0.000000e+000  1.000000e+000  0.000000e+000
    outer loop
      vertex  6.000000e+000  1.800000e+001  3.464102e+000
      vertex  2.296235e+000  1.800000e+001 -1.513210e+000
      vertex  2.513983e+000  1.800000e+001 -1.114624e+000
    endloop
  endfacet
  facet normal  0.000000e+000  1.000000e+000  0.000000e+000
    outer loop
      vertex  6.000000e+000  1.800000e+001  3.464102e+000
      vertex  2.513983e+000  1.800000e+001 -1.114624e+000
      vertex  2.663157e+000  1.800000e+001 -6.856340e-001
    endloop
  endfacet
  facet normal  0.000000e+000  1.000000e+000  0.000000e+000
    outer loop
      vertex  6.000000e+000  1.800000e+001  3.464102e+000
      vertex  2.663157e+000  1.800000e+001 -6.856340e-001
      vertex  2.739687e+000  1.800000e+001 -2.379416e-001
    endloop
  endfacet
  facet normal  0.000000e+000  1.000000e+000  0.000000e+000
    outer loop
      vertex  6.000000e+000  1.800000e+001  3.464102e+000
      vertex  2.739687e+000  1.800000e+001 -2.379416e-001
      vertex  2.741485e+000  1.800000e+001  2.162412e-001
    endloop
  endfacet
  facet normal  0.000000e+000  1.000000e+000  -0.000000e+000
    outer loop
      vertex  6.000000e+000  1.800000e+001  3.464102e+000
      vertex  2.741485e+000  1.800000e+001  2.162412e-001
      vertex  2.668503e+000  1.800000e+001  6.645256e-001
    endloop
  endfacet
  facet normal  0.000000e+000  1.000000e+000  -0.000000e+000
    outer loop
      vertex  6.000000e+000  1.800000e+001  3.464102e+000
      vertex  2.668503e+000  1.800000e+001  6.645256e-001
      vertex  2.522730e+000  1.800000e+001  1.094683e+000
    endloop
  endfacet
  facet normal  0.000000e+000  1.000000e+000  -0.000000e+000
    outer loop
      vertex  6.000000e+000  1.800000e+001  3.464102e+000
      vertex  2.522730e+000  1.800000e+001  1.094683e+000
      vertex  2.308145e+000  1.800000e+001  1.494981e+000
    endloop
  endfacet
  facet normal  0.000000e+000  1.000000e+000  -0.000000e+000
    outer loop
      vertex  6.000000e+000  1.800000e+001  3.464102e+000
      vertex  2.308145e+000  1.800000e+001  1.494981e+000
      vertex  2.030599e+000  1.800000e+001  1.854500e+000
    endloop
  endfacet
  facet normal  0.000000e+000  1.000000e+000  -0.000000e+000
    outer loop
      vertex  6.000000e+000  1.800000e+001  3.464102e+000
      vertex  2.030599e+000  1.800000e+001  1.854500e+000
      vertex  1.697663e+000  1.800000e+001  2.163432e+000
    endloop
  endfacet
  facet normal  0.000000e+000  1.000000e+000  -0.000000e+000
    outer loop
      vertex  6.000000e+000  1.800000e+001  3.464102e+000
      vertex  1.697663e+000  1.800000e+001  2.163432e+000
      vertex  1.318420e+000  1.800000e+001  2.413352e+000
    endloop
  endfacet
  facet normal  0.000000e+000  1.000000e+000  -0.000000e+000
    outer loop
      vertex  6.000000e+000  1.800000e+001  3.464102e+000
      vertex  1.318420e+000  1.800000e+001  2.413352e+000
      vertex  9.032140e-001  1.800000e+001  2.597442e+000
    endloop
  endfacet
  facet normal  0.000000e+000  1.000000e+000  -0.000000e+000
    outer loop
      vertex  6.000000e+000  1.800000e+001  3.464102e+000
      vertex  9.032140e-001  1.800000e+001  2.597442e+000
      vertex  4.633705e-001  1.800000e+001  2.710680e+000
    endloop
  endfacet
  facet normal  0.000000e+000  1.000000e+000  -0.000000e+000
    outer loop
      vertex  6.000000e+000  1.800000e+001  3.464102e+000
      vertex  4.633705e-001  1.800000e+001  2.710680e+000
      vertex  1.088737e-002  1.800000e+001  2.749979e+000
    endloop
  endfacet
  facet normal  0.000000e+000  1.000000e+000  -0.000000e+000
    outer loop
      vertex  6.000000e+000  1.800000e+001  3.464102e+000
      vertex  1.088737e-002  1.800000e+001  2.749979e+000
      vertex  0.000000e+000  1.800000e+001  6.928203e+000
    endloop
  endfacet
  facet normal  0.000000e+000  1.000000e+000  -0.000000e+000
    outer loop
      vertex  6.000000e+000  1.800000e+001 -3.464102e+000
      vertex  3.552714e-015  1.800000e+001 -6.928203e+000
      vertex -1.088737e-002  1.800000e+001 -2.749979e+000
    endloop
  endfacet
  facet normal  -0.000000e+000  1.000000e+000  0.000000e+000
    outer loop
      vertex  6.000000e+000  1.800000e+001 -3.464102e+000
      vertex -1.088737e-002  1.800000e+001 -2.749979e+000
      vertex  4.418927e-001  1.800000e+001 -2.714264e+000
    endloop
  endfacet
  facet normal  -0.000000e+000  9.999999e-001  0.000000e+000
    outer loop
      vertex  6.000000e+000  1.800000e+001 -3.464102e+000
      vertex  4.418927e-001  1.800000e+001 -2.714264e+000
      vertex  8.826191e-001  1.800000e+001 -2.604512e+000
    endloop
  endfacet
  facet normal  -0.000000e+000  1.000000e+000  0.000000e+000
    outer loop
      vertex  6.000000e+000  1.800000e+001 -3.464102e+000
      vertex  8.826191e-001  1.800000e+001 -2.604512e+000
      vertex  1.299270e+000  1.800000e+001 -2.423716e+000
    endloop
  endfacet
  facet normal  -0.000000e+000  9.999999e-001  0.000000e+000
    outer loop
      vertex  6.000000e+000  1.800000e+001 -3.464102e+000
      vertex  1.299270e+000  1.800000e+001 -2.423716e+000
      vertex  1.680480e+000  1.800000e+001 -2.176806e+000
    endloop
  endfacet
  facet normal  -0.000000e+000  1.000000e+000  0.000000e+000
    outer loop
      vertex  6.000000e+000  1.800000e+001 -3.464102e+000
      vertex  1.680480e+000  1.800000e+001 -2.176806e+000
      vertex  2.015851e+000  1.800000e+001 -1.870520e+000
    endloop
  endfacet
  facet normal  -0.000000e+000  1.000000e+000  0.000000e+000
    outer loop
      vertex  6.000000e+000  1.800000e+001 -3.464102e+000
      vertex  2.015851e+000  1.800000e+001 -1.870520e+000
      vertex  2.296235e+000  1.800000e+001 -1.513210e+000
    endloop
  endfacet
  facet normal  -0.000000e+000  9.999999e-001  0.000000e+000
    outer loop
      vertex  6.000000e+000  1.800000e+001 -3.464102e+000
      vertex  2.296235e+000  1.800000e+001 -1.513210e+000
      vertex  6.000000e+000  1.800000e+001  3.464102e+000
    endloop
  endfacet
  facet normal  0.000000e+000 -1.000000e+000  0.000000e+000
    outer loop
      vertex  2.632125e-001  4.000000e+000 -3.690626e+000
      vertex -2.646974e-001  4.000000e+000 -3.690520e+000
      vertex  8.881784e-016  4.000000e+000 -6.928203e+000
    endloop
  endfacet
  facet normal  0.000000e+000 -1.000000e+000  -0.000000e+000
    outer loop
      vertex  6.000000e+000  4.000000e+000 -3.464102e+000
      vertex  6.000000e+000  4.000000e+000  3.464102e+000
      vertex  3.247056e+000  4.000000e+000 -1.773875e+000
    endloop
  endfacet
  facet normal  0.000000e+000 -1.000000e+000  -0.000000e+000
    outer loop
      vertex  6.000000e+000  4.000000e+000 -3.464102e+000
      vertex  3.247056e+000  4.000000e+000 -1.773875e+000
      vertex  2.961556e+000  4.000000e+000 -2.217923e+000
    endloop
  endfacet
  facet normal  0.000000e+000 -1.000000e+000  -0.000000e+000
    outer loop
      vertex  6.000000e+000  4.000000e+000 -3.464102e+000
      vertex  2.961556e+000  4.000000e+000 -2.217923e+000
      vertex  2.615769e+000  4.000000e+000 -2.616821e+000
    endloop
  endfacet
  facet normal  0.000000e+000 -9.999999e-001  -0.000000e+000
    outer loop
      vertex  6.000000e+000  4.000000e+000 -3.464102e+000
      vertex  2.615769e+000  4.000000e+000 -2.616821e+000
      vertex  2.216732e+000  4.000000e+000 -2.962449e+000
    endloop
  endfacet
  facet normal  0.000000e+000 -1.000000e+000  -0.000000e+000
    outer loop
      vertex  6.000000e+000  4.000000e+000 -3.464102e+000
      vertex  2.216732e+000  4.000000e+000 -2.962449e+000
      vertex  1.772568e+000  4.000000e+000 -3.247769e+000
    endloop
  endfacet
  facet normal  0.000000e+000 -1.000000e+000  -0.000000e+000
    outer loop
      vertex  6.000000e+000  4.000000e+000 -3.464102e+000
      vertex  1.772568e+000  4.000000e+000 -3.247769e+000
      vertex  1.292320e+000  4.000000e+000 -3.466974e+000
    endloop
  endfacet
  facet normal  0.000000e+000 -1.000000e+000  -0.000000e+000
    outer loop
      vertex  6.000000e+000  4.000000e+000 -3.464102e+000
      vertex  1.292320e+000  4.000000e+000 -3.466974e+000
      vertex  7.857642e-001  4.000000e+000 -3.615602e+000
    endloop
  endfacet
  facet normal  0.000000e+000 -9.999999e-001  -0.000000e+000
    outer loop
      vertex  6.000000e+000  4.000000e+000 -3.464102e+000
      vertex  7.857642e-001  4.000000e+000 -3.615602e+000
      vertex  2.632125e-001  4.000000e+000 -3.690626e+000
    endloop
  endfacet
  facet normal  0.000000e+000 -1.000000e+000  -0.000000e+000
    outer loop
      vertex  6.000000e+000  4.000000e+000 -3.464102e+000
      vertex  2.632125e-001  4.000000e+000 -3.690626e+000
      vertex  8.881784e-016  4.000000e+000 -6.928203e+000
    endloop
  endfacet
  facet normal  0.000000e+000 -1.000000e+000  0.000000e+000
    outer loop
      vertex  1.776357e-015  4.000000e+000  6.928203e+000
      vertex -6.000000e+000  4.000000e+000  3.464102e+000
      vertex -1.292320e+000  4.000000e+000  3.466974e+000
    endloop
  endfacet
  facet normal  0.000000e+000 -1.000000e+000  0.000000e+000
    outer loop
      vertex  1.776357e-015  4.000000e+000  6.928203e+000
      vertex -1.292320e+000  4.000000e+000  3.466974e+000
      vertex -7.857642e-001  4.000000e+000  3.615602e+000
    endloop
  endfacet
  facet normal  0.000000e+000 -9.999999e-001  0.000000e+000
    outer loop
      vertex  1.776357e-015  4.000000e+000  6.928203e+000
      vertex -7.857642e-001  4.000000e+000  3.615602e+000
      vertex -2.632125e-001  4.000000e+000  3.690626e+000
    endloop
  endfacet
  facet normal  0.000000e+000 -1.000000e+000  0.000000e+000
    outer loop
      vertex  1.776357e-015  4.000000e+000  6.928203e+000
      vertex -2.632125e-001  4.000000e+000  3.690626e+000
      vertex  2.646974e-001  4.000000e+000  3.690520e+000
    endloop
  endfacet
  facet normal  0.000000e+000 -9.999999e-001  0.000000e+000
    outer loop
      vertex  1.776357e-015  4.000000e+000  6.928203e+000
      vertex  2.646974e-001  4.000000e+000  3.690520e+000
      vertex  7.872189e-001  4.000000e+000  3.615285e+000
    endloop
  endfacet
  facet normal  0.000000e+000 -1.000000e+000  0.000000e+000
    outer loop
      vertex  1.776357e-015  4.000000e+000  6.928203e+000
      vertex  7.872189e-001  4.000000e+000  3.615285e+000
      vertex  1.293715e+000  4.000000e+000  3.466454e+000
    endloop
  endfacet
  facet normal  0.000000e+000 -1.000000e+000  0.000000e+000
    outer loop
      vertex  1.776357e-015  4.000000e+000  6.928203e+000
      vertex  1.293715e+000  4.000000e+000  3.466454e+000
      vertex  6.000000e+000  4.000000e+000  3.464102e+000
    endloop
  endfacet
  facet normal  0.000000e+000 -1.000000e+000  0.000000e+000
    outer loop
      vertex -6.000000e+000  4.000000e+000 -3.464102e+000
      vertex  8.881784e-016  4.000000e+000 -6.928203e+000
      vertex -2.646974e-001  4.000000e+000 -3.690520e+000
    endloop
  endfacet
  facet normal  0.000000e+000 -1.000000e+000  0.000000e+000
    outer loop
      vertex -6.000000e+000  4.000000e+000 -3.464102e+000
      vertex -2.646974e-001  4.000000e+000 -3.690520e+000
      vertex -7.872189e-001  4.000000e+000 -3.615285e+000
    endloop
  endfacet
  facet normal  0.000000e+000 -1.000000e+000  0.000000e+000
    outer loop
      vertex -6.000000e+000  4.000000e+000 -3.464102e+000
      vertex -7.872189e-001  4.000000e+000 -3.615285e+000
      vertex -1.293715e+000  4.000000e+000 -3.466454e+000
    endloop
  endfacet
  facet normal  0.000000e+000 -1.000000e+000  0.000000e+000
    outer loop
      vertex -6.000000e+000  4.000000e+000 -3.464102e+000
      vertex -1.293715e+000  4.000000e+000 -3.466454e+000
      vertex -1.773875e+000  4.000000e+000 -3.247056e+000
    endloop
  endfacet
  facet normal  -0.000000e+000 -1.000000e+000  0.000000e+000
    outer loop
      vertex -6.000000e+000  4.000000e+000 -3.464102e+000
      vertex -1.773875e+000  4.000000e+000 -3.247056e+000
      vertex -2.217923e+000  4.000000e+000 -2.961556e+000
    endloop
  endfacet
  facet normal  -0.000000e+000 -1.000000e+000  0.000000e+000
    outer loop
      vertex -6.000000e+000  4.000000e+000 -3.464102e+000
      vertex -2.217923e+000  4.000000e+000 -2.961556e+000
      vertex -2.616821e+000  4.000000e+000 -2.615769e+000
    endloop
  endfacet
  facet normal  -0.000000e+000 -1.000000e+000  0.000000e+000
    outer loop
      vertex -6.000000e+000  4.000000e+000 -3.464102e+000
      vertex -2.616821e+000  4.000000e+000 -2.615769e+000
      vertex -2.962449e+000  4.000000e+000 -2.216732e+000
    endloop
  endfacet
  facet normal  -0.000000e+000 -1.000000e+000  0.000000e+000
    outer loop
      vertex -6.000000e+000  4.000000e+000 -3.464102e+000
      vertex -2.962449e+000  4.000000e+000 -2.216732e+000
      vertex -3.247769e+000  4.000000e+000 -1.772568e+000
    endloop
  endfacet
  facet normal  -0.000000e+000 -1.000000e+000  0.000000e+000
    outer loop
      vertex -6.000000e+000  4.000000e+000 -3.464102e+000
      vertex -3.247769e+000  4.000000e+000 -1.772568e+000
      vertex -3.466974e+000  4.000000e+000 -1.292320e+000
    endloop
  endfacet
  facet normal  -0.000000e+000 -1.000000e+000  0.000000e+000
    outer loop
      vertex -6.000000e+000  4.000000e+000 -3.464102e+000
      vertex -3.466974e+000  4.000000e+000 -1.292320e+000
      vertex -3.615602e+000  4.000000e+000 -7.857642e-001
    endloop
  endfacet
  facet normal  -0.000000e+000 -1.000000e+000  0.000000e+000
    outer loop
      vertex -6.000000e+000  4.000000e+000 -3.464102e+000
      vertex -3.615602e+000  4.000000e+000 -7.857642e-001
      vertex -3.690626e+000  4.000000e+000 -2.632125e-001
    endloop
  endfacet
  facet normal  -0.000000e+000 -1.000000e+000  0.000000e+000
    outer loop
      vertex -6.000000e+000  4.000000e+000 -3.464102e+000
      vertex -3.690626e+000  4.000000e+000 -2.632125e-001
      vertex -3.690520e+000  4.000000e+000  2.646974e-001
    endloop
  endfacet
  facet normal  -0.000000e+000 -1.000000e+000  0.000000e+000
    outer loop
      vertex -6.000000e+000  4.000000e+000 -3.464102e+000
      vertex -3.690520e+000  4.000000e+000  2.646974e-001
      vertex -6.000000e+000  4.000000e+000  3.464102e+000
    endloop
  endfacet
  facet normal  0.000000e+000 -1.000000e+000  0.000000e+000
    outer loop
      vertex -6.000000e+000  4.000000e+000  3.464102e+000
      vertex -3.690520e+000  4.000000e+000  2.646974e-001
      vertex -3.615285e+000  4.000000e+000  7.872189e-001
    endloop
  endfacet
  facet normal  0.000000e+000 -1.000000e+000  0.000000e+000
    outer loop
      vertex -6.000000e+000  4.000000e+000  3.464102e+000
      vertex -3.615285e+000  4.000000e+000  7.872189e-001
      vertex -3.466454e+000  4.000000e+000  1.293715e+000
    endloop
  endfacet
  facet normal  0.000000e+000 -9.999999e-001  0.000000e+000
    outer loop
      vertex -6.000000e+000  4.000000e+000  3.464102e+000
      vertex -3.466454e+000  4.000000e+000  1.293715e+000
      vertex -3.247056e+000  4.000000e+000  1.773875e+000
    endloop
  endfacet
  facet normal  0.000000e+000 -1.000000e+000  0.000000e+000
    outer loop
      vertex -6.000000e+000  4.000000e+000  3.464102e+000
      vertex -3.247056e+000  4.000000e+000  1.773875e+000
      vertex -2.961556e+000  4.000000e+000  2.217923e+000
    endloop
  endfacet
  facet normal  0.000000e+000 -1.000000e+000  0.000000e+000
    outer loop
      vertex -6.000000e+000  4.000000e+000  3.464102e+000
      vertex -2.961556e+000  4.000000e+000  2.217923e+000
      vertex -2.615769e+000  4.000000e+000  2.616821e+000
    endloop
  endfacet
  facet normal  0.000000e+000 -9.999999e-001  0.000000e+000
    outer loop
      vertex -6.000000e+000  4.000000e+000  3.464102e+000
      vertex -2.615769e+000  4.000000e+000  2.616821e+000
      vertex -2.216732e+000  4.000000e+000  2.962449e+000
    endloop
  endfacet
  facet normal  0.000000e+000 -1.000000e+000  0.000000e+000
    outer loop
      vertex -6.000000e+000  4.000000e+000  3.464102e+000
      vertex -2.216732e+000  4.000000e+000  2.962449e+000
      vertex -1.772568e+000  4.000000e+000  3.247769e+000
    endloop
  endfacet
  facet normal  0.000000e+000 -1.000000e+000  0.000000e+000
    outer loop
      vertex -6.000000e+000  4.000000e+000  3.464102e+000
      vertex -1.772568e+000  4.000000e+000  3.247769e+000
      vertex -1.292320e+000  4.000000e+000  3.466974e+000
    endloop
  endfacet
  facet normal  0.000000e+000 -1.000000e+000  0.000000e+000
    outer loop
      vertex  6.000000e+000  4.000000e+000  3.464102e+000
      vertex  1.293715e+000  4.000000e+000  3.466454e+000
      vertex  1.773875e+000  4.000000e+000  3.247056e+000
    endloop
  endfacet
  facet normal  0.000000e+000 -1.000000e+000  0.000000e+000
    outer loop
      vertex  6.000000e+000  4.000000e+000  3.464102e+000
      vertex  1.773875e+000  4.000000e+000  3.247056e+000
      vertex  2.217923e+000  4.000000e+000  2.961556e+000
    endloop
  endfacet
  facet normal  0.000000e+000 -1.000000e+000  0.000000e+000
    outer loop
      vertex  6.000000e+000  4.000000e+000  3.464102e+000
      vertex  2.217923e+000  4.000000e+000  2.961556e+000
      vertex  2.616821e+000  4.000000e+000  2.615769e+000
    endloop
  endfacet
  facet normal  0.000000e+000 -1.000000e+000  0.000000e+000
    outer loop
      vertex  6.000000e+000  4.000000e+000  3.464102e+000
      vertex  2.616821e+000  4.000000e+000  2.615769e+000
      vertex  2.962449e+000  4.000000e+000  2.216732e+000
    endloop
  endfacet
  facet normal  0.000000e+000 -1.000000e+000  0.000000e+000
    outer loop
      vertex  6.000000e+000  4.000000e+000  3.464102e+000
      vertex  2.962449e+000  4.000000e+000  2.216732e+000
      vertex  3.247769e+000  4.000000e+000  1.772568e+000
    endloop
  endfacet
  facet normal  0.000000e+000 -1.000000e+000  0.000000e+000
    outer loop
      vertex  6.000000e+000  4.000000e+000  3.464102e+000
      vertex  3.247769e+000  4.000000e+000  1.772568e+000
      vertex  3.466974e+000  4.000000e+000  1.292320e+000
    endloop
  endfacet
  facet normal  0.000000e+000 -1.000000e+000  0.000000e+000
    outer loop
      vertex  6.000000e+000  4.000000e+000  3.464102e+000
      vertex  3.466974e+000  4.000000e+000  1.292320e+000
      vertex  3.615602e+000  4.000000e+000  7.857642e-001
    endloop
  endfacet
  facet normal  0.000000e+000 -1.000000e+000  0.000000e+000
    outer loop
      vertex  6.000000e+000  4.000000e+000  3.464102e+000
      vertex  3.615602e+000  4.000000e+000  7.857642e-001
      vertex  3.690626e+000  4.000000e+000  2.632125e-001
    endloop
  endfacet
  facet normal  0.000000e+000 -1.000000e+000  -0.000000e+000
    outer loop
      vertex  6.000000e+000  4.000000e+000  3.464102e+000
      vertex  3.690626e+000  4.000000e+000  2.632125e-001
      vertex  3.690520e+000  4.000000e+000 -2.646974e-001
    endloop
  endfacet
  facet normal  0.000000e+000 -1.000000e+000  -0.000000e+000
    outer loop
      vertex  6.000000e+000  4.000000e+000  3.464102e+000
      vertex  3.690520e+000  4.000000e+000 -2.646974e-001
      vertex  3.615285e+000  4.000000e+000 -7.872189e-001
    endloop
  endfacet
  facet normal  0.000000e+000 -1.000000e+000  -0.000000e+000
    outer loop
      vertex  6.000000e+000  4.000000e+000  3.464102e+000
      vertex  3.615285e+000  4.000000e+000 -7.872189e-001
      vertex  3.466454e+000  4.000000e+000 -1.293715e+000
    endloop
  endfacet
  facet normal  0.000000e+000 -1.000000e+000  -0.000000e+000
    outer loop
      vertex  6.000000e+000  4.000000e+000  3.464102e+000
      vertex  3.466454e+000  4.000000e+000 -1.293715e+000
      vertex  3.247056e+000  4.000000e+000 -1.773875e+000
    endloop
  endfacet
  facet normal -5.000000e-001  9.516197e-017 -8.660254e-001
    outer loop
      vertex  3.552714e-015  1.800000e+001 -6.928203e+000
      vertex  8.881784e-016  4.000000e+000 -6.928203e+000
      vertex -6.000000e+000  1.800000e+001 -3.464102e+000
    endloop
  endfacet
  facet normal -5.000000e-001  -0.000000e+000 -8.660254e-001
    outer loop
      vertex -6.000000e+000  1.800000e+001 -3.464102e+000
      vertex  8.881784e-016  4.000000e+000 -6.928203e+000
      vertex -6.000000e+000  4.000000e+000 -3.464102e+000
    endloop
  endfacet
  facet normal  5.000000e-001  0.000000e+000 -8.660254e-001
    outer loop
      vertex  6.000000e+000  1.800000e+001 -3.464102e+000
      vertex  6.000000e+000  4.000000e+000 -3.464102e+000
      vertex  3.552714e-015  1.800000e+001 -6.928203e+000
    endloop
  endfacet
  facet normal  5.000000e-001 -9.516197e-017 -8.660254e-001
    outer loop
      vertex  3.552714e-015  1.800000e+001 -6.928203e+000
      vertex  6.000000e+000  4.000000e+000 -3.464102e+000
      vertex  8.881784e-016  4.000000e+000 -6.928203e+000
    endloop
  endfacet
  facet normal  1.000000e+000  -0.000000e+000  0.000000e+000
    outer loop
      vertex  6.000000e+000  1.800000e+001  3.464102e+000
      vertex  6.000000e+000  4.000000e+000  3.464102e+000
      vertex  6.000000e+000  1.800000e+001 -3.464102e+000
    endloop
  endfacet
  facet normal  1.000000e+000  0.000000e+000  0.000000e+000
    outer loop
      vertex  6.000000e+000  1.800000e+001 -3.464102e+000
      vertex  6.000000e+000  4.000000e+000  3.464102e+000
      vertex  6.000000e+000  4.000000e+000 -3.464102e+000
    endloop
  endfacet
  facet normal  5.000000e-001  6.344132e-017  8.660254e-001
    outer loop
      vertex  0.000000e+000  1.800000e+001  6.928203e+000
      vertex  1.776357e-015  4.000000e+000  6.928203e+000
      vertex  6.000000e+000  1.800000e+001  3.464102e+000
    endloop
  endfacet
  facet normal  5.000000e-001  0.000000e+000  8.660254e-001
    outer loop
      vertex  6.000000e+000  1.800000e+001  3.464102e+000
      vertex  1.776357e-015  4.000000e+000  6.928203e+000
      vertex  6.000000e+000  4.000000e+000  3.464102e+000
    endloop
  endfacet
  facet normal -5.000000e-001  0.000000e+000  8.660254e-001
    outer loop
      vertex -6.000000e+000  1.800000e+001  3.464102e+000
      vertex -6.000000e+000  4.000000e+000  3.464102e+000
      vertex  0.000000e+000  1.800000e+001  6.928203e+000
    endloop
  endfacet
  facet normal -5.000000e-001 -6.344132e-017  8.660254e-001
    outer loop
      vertex  0.000000e+000  1.800000e+001  6.928203e+000
      vertex -6.000000e+000  4.000000e+000  3.464102e+000
      vertex  1.776357e-015  4.000000e+000  6.928203e+000
    endloop
  endfacet
  facet normal -1.000000e+000  0.000000e+000  0.000000e+000
    outer loop
      vertex -6.000000e+000  1.800000e+001 -3.464102e+000
      vertex -6.000000e+000  4.000000e+000 -3.464102e+000
      vertex -6.000000e+000  1.800000e+001  3.464102e+000
    endloop
  endfacet
  facet normal -1.000000e+000  -0.000000e+000  0.000000e+000
    outer loop
      vertex -6.000000e+000  1.800000e+001  3.464102e+000
      vertex -6.000000e+000  4.000000e+000 -3.464102e+000
      vertex -6.000000e+000  4.000000e+000  3.464102e+000
    endloop
  endfacet
  facet normal  2.640118e-015 -1.000000e+000  4.006271e-015
    outer loop
      vertex -1.697663e+000  3.552714e-015 -2.163432e+000
      vertex -2.962449e+000  0.000000e+000 -2.216732e+000
      vertex -1.318420e+000  3.552714e-015 -2.413352e+000
    endloop
  endfacet
  facet normal -7.651504e-016 -1.000000e+000 -8.809991e-015
    outer loop
      vertex  1.088737e-002  3.552714e-015  2.749979e+000
      vertex  4.633705e-001  3.552714e-015  2.710680e+000
      vertex  2.217923e+000  0.000000e+000  2.961556e+000
    endloop
  endfacet
  facet normal -1.400851e-015 -1.000000e+000 -2.178801e-015
    outer loop
      vertex  1.088737e-002  3.552714e-015  2.749979e+000
      vertex  2.217923e+000  0.000000e+000  2.961556e+000
      vertex  1.773875e+000  0.000000e+000  3.247056e+000
    endloop
  endfacet
  facet normal -1.246192e-015 -1.000000e+000 -2.727329e-015
    outer loop
      vertex  1.088737e-002  3.552714e-015  2.749979e+000
      vertex  1.773875e+000  0.000000e+000  3.247056e+000
      vertex  1.293715e+000  0.000000e+000  3.466454e+000
    endloop
  endfacet
  facet normal -9.547476e-016 -1.000000e+000 -3.249153e-015
    outer loop
      vertex  1.088737e-002  3.552714e-015  2.749979e+000
      vertex  1.293715e+000  0.000000e+000  3.466454e+000
      vertex  7.872189e-001  0.000000e+000  3.615285e+000
    endloop
  endfacet
  facet normal -5.235281e-016 -1.000000e+000 -3.636032e-015
    outer loop
      vertex  1.088737e-002  3.552714e-015  2.749979e+000
      vertex  7.872189e-001  0.000000e+000  3.615285e+000
      vertex  2.646974e-001  0.000000e+000  3.690520e+000
    endloop
  endfacet
  facet normal -2.912174e-016 -1.000000e+000  3.692022e-015
    outer loop
      vertex  4.418927e-001  3.552714e-015 -2.714264e+000
      vertex -1.088737e-002  3.552714e-015 -2.749979e+000
      vertex  2.632125e-001  0.000000e+000 -3.690626e+000
    endloop
  endfacet
  facet normal -5.365204e-016 -1.000000e+000  3.736915e-015
    outer loop
      vertex  4.418927e-001  3.552714e-015 -2.714264e+000
      vertex  2.632125e-001  0.000000e+000 -3.690626e+000
      vertex  7.857642e-001  0.000000e+000 -3.615602e+000
    endloop
  endfacet
  facet normal -1.040073e-015 -1.000000e+000  3.544803e-015
    outer loop
      vertex  4.418927e-001  3.552714e-015 -2.714264e+000
      vertex  7.857642e-001  0.000000e+000 -3.615602e+000
      vertex  1.292320e+000  0.000000e+000 -3.466974e+000
    endloop
  endfacet
  facet normal -1.421364e-015 -1.000000e+000  3.114012e-015
    outer loop
      vertex  4.418927e-001  3.552714e-015 -2.714264e+000
      vertex  1.292320e+000  0.000000e+000 -3.466974e+000
      vertex  1.772568e+000  0.000000e+000 -3.247769e+000
    endloop
  endfacet
  facet normal -1.643868e-015 -1.000000e+000  2.559040e-015
    outer loop
      vertex  4.418927e-001  3.552714e-015 -2.714264e+000
      vertex  1.772568e+000  0.000000e+000 -3.247769e+000
      vertex  2.216732e+000  0.000000e+000 -2.962449e+000
    endloop
  endfacet
  facet normal -1.723468e-015 -1.000000e+000  1.989795e-015
    outer loop
      vertex  4.418927e-001  3.552714e-015 -2.714264e+000
      vertex  2.216732e+000  0.000000e+000 -2.962449e+000
      vertex  2.615769e+000  0.000000e+000 -2.616821e+000
    endloop
  endfacet
  facet normal -1.993019e-015 -1.000000e+000  8.003272e-015
    outer loop
      vertex  4.418927e-001  3.552714e-015 -2.714264e+000
      vertex  2.615769e+000  0.000000e+000 -2.616821e+000
      vertex  8.826191e-001  3.552714e-015 -2.604512e+000
    endloop
  endfacet
  facet normal  3.349617e-015 -1.000000e+000  3.856771e-014
    outer loop
      vertex -1.088737e-002  3.552714e-015 -2.749979e+000
      vertex -4.633705e-001  3.552714e-015 -2.710680e+000
      vertex -2.616821e+000  0.000000e+000 -2.615769e+000
    endloop
  endfacet
  facet normal  1.449430e-015 -9.999999e-001  1.672052e-015
    outer loop
      vertex -1.088737e-002  3.552714e-015 -2.749979e+000
      vertex -2.616821e+000  0.000000e+000 -2.615769e+000
      vertex -2.217923e+000  0.000000e+000 -2.961556e+000
    endloop
  endfacet
  facet normal  1.400851e-015 -1.000000e+000  2.178801e-015
    outer loop
      vertex -1.088737e-002  3.552714e-015 -2.749979e+000
      vertex -2.217923e+000  0.000000e+000 -2.961556e+000
      vertex -1.773875e+000  0.000000e+000 -3.247056e+000
    endloop
  endfacet
  facet normal  1.246192e-015 -1.000000e+000  2.727329e-015
    outer loop
      vertex -1.088737e-002  3.552714e-015 -2.749979e+000
      vertex -1.773875e+000  0.000000e+000 -3.247056e+000
      vertex -1.293715e+000  0.000000e+000 -3.466454e+000
    endloop
  endfacet
  facet normal  9.547476e-016 -1.000000e+000  3.249153e-015
    outer loop
      vertex -1.088737e-002  3.552714e-015 -2.749979e+000
      vertex -1.293715e+000  0.000000e+000 -3.466454e+000
      vertex -7.872189e-001  0.000000e+000 -3.615285e+000
    endloop
  endfacet
  facet normal  5.235281e-016 -1.000000e+000  3.636032e-015
    outer loop
      vertex -1.088737e-002  3.552714e-015 -2.749979e+000
      vertex -7.872189e-001  0.000000e+000 -3.615285e+000
      vertex -2.646974e-001  0.000000e+000 -3.690520e+000
    endloop
  endfacet
  facet normal  7.608060e-019 -1.000000e+000  3.777103e-015
    outer loop
      vertex -1.088737e-002  3.552714e-015 -2.749979e+000
      vertex -2.646974e-001  0.000000e+000 -3.690520e+000
      vertex  2.632125e-001  0.000000e+000 -3.690626e+000
    endloop
  endfacet
  facet normal -7.608061e-019 -1.000000e+000 -3.777103e-015
    outer loop
      vertex -2.632125e-001  0.000000e+000  3.690626e+000
      vertex  1.088737e-002  3.552714e-015  2.749979e+000
      vertex  2.646974e-001  0.000000e+000  3.690520e+000
    endloop
  endfacet
  facet normal  2.912174e-016 -1.000000e+000 -3.692022e-015
    outer loop
      vertex  1.088737e-002  3.552714e-015  2.749979e+000
      vertex -2.632125e-001  0.000000e+000  3.690626e+000
      vertex -4.418927e-001  3.552714e-015  2.714264e+000
    endloop
  endfacet
  facet normal  5.365204e-016 -1.000000e+000 -3.736914e-015
    outer loop
      vertex -4.418927e-001  3.552714e-015  2.714264e+000
      vertex -2.632125e-001  0.000000e+000  3.690626e+000
      vertex -7.857642e-001  0.000000e+000  3.615602e+000
    endloop
  endfacet
  facet normal  1.532283e-015 -1.000000e+000 -3.357019e-015
    outer loop
      vertex -4.418927e-001  3.552714e-015  2.714264e+000
      vertex -7.857642e-001  0.000000e+000  3.615602e+000
      vertex -2.216732e+000  0.000000e+000  2.962449e+000
    endloop
  endfacet
  facet normal  0.000000e+000 -1.000000e+000  0.000000e+000
    outer loop
      vertex -2.216732e+000  0.000000e+000  2.962449e+000
      vertex -7.857642e-001  0.000000e+000  3.615602e+000
      vertex -1.292320e+000  0.000000e+000  3.466974e+000
    endloop
  endfacet
  facet normal  0.000000e+000 -9.999999e-001  0.000000e+000
    outer loop
      vertex -2.216732e+000  0.000000e+000  2.962449e+000
      vertex -1.292320e+000  0.000000e+000  3.466974e+000
      vertex -1.772568e+000  0.000000e+000  3.247769e+000
    endloop
  endfacet
  facet normal  1.990547e-015 -9.999999e-001  7.731739e-015
    outer loop
      vertex -4.633705e-001  3.552714e-015 -2.710680e+000
      vertex -9.032140e-001  3.552714e-015 -2.597442e+000
      vertex -2.616821e+000  0.000000e+000 -2.615769e+000
    endloop
  endfacet
  facet normal  2.024405e-015 -1.000000e+000  4.565951e-015
    outer loop
      vertex -2.616821e+000  0.000000e+000 -2.615769e+000
      vertex -9.032140e-001  3.552714e-015 -2.597442e+000
      vertex -1.318420e+000  3.552714e-015 -2.413352e+000
    endloop
  endfacet
  facet normal  2.410703e-015 -1.000000e+000  2.088038e-015
    outer loop
      vertex -2.616821e+000  0.000000e+000 -2.615769e+000
      vertex -1.318420e+000  3.552714e-015 -2.413352e+000
      vertex -2.962449e+000  0.000000e+000 -2.216732e+000
    endloop
  endfacet
  facet normal  3.382925e-015 -1.000000e+000  1.813470e-015
    outer loop
      vertex -2.522730e+000  3.552714e-015 -1.094683e+000
      vertex -3.466974e+000  0.000000e+000 -1.292320e+000
      vertex -2.308145e+000  3.552714e-015 -1.494981e+000
    endloop
  endfacet
  facet normal  3.331731e-015 -1.000000e+000  1.520741e-015
    outer loop
      vertex -2.308145e+000  3.552714e-015 -1.494981e+000
      vertex -3.466974e+000  0.000000e+000 -1.292320e+000
      vertex -3.247769e+000  0.000000e+000 -1.772568e+000
    endloop
  endfacet
  facet normal  3.078822e-015 -9.999999e-001  2.376831e-015
    outer loop
      vertex -2.308145e+000  3.552714e-015 -1.494981e+000
      vertex -3.247769e+000  0.000000e+000 -1.772568e+000
      vertex -2.030599e+000  3.552714e-015 -1.854500e+000
    endloop
  endfacet
  facet normal  3.050746e-015 -1.000000e+000  1.959728e-015
    outer loop
      vertex -2.030599e+000  3.552714e-015 -1.854500e+000
      vertex -3.247769e+000  0.000000e+000 -1.772568e+000
      vertex -2.962449e+000  0.000000e+000 -2.216732e+000
    endloop
  endfacet
  facet normal  2.686919e-015 -1.000000e+000  2.895681e-015
    outer loop
      vertex -2.030599e+000  3.552714e-015 -1.854500e+000
      vertex -2.962449e+000  0.000000e+000 -2.216732e+000
      vertex -1.697663e+000  3.552714e-015 -2.163432e+000
    endloop
  endfacet
  facet normal  3.074968e-015 -1.000000e+000 -2.412952e-015
    outer loop
      vertex -2.015851e+000  3.552714e-015  1.870520e+000
      vertex -3.247056e+000  0.000000e+000  1.773875e+000
      vertex -2.296235e+000  3.552714e-015  1.513210e+000
    endloop
  endfacet
  facet normal  3.320525e-015 -1.000000e+000 -1.517240e-015
    outer loop
      vertex -2.296235e+000  3.552714e-015  1.513210e+000
      vertex -3.247056e+000  0.000000e+000  1.773875e+000
      vertex -3.466454e+000  0.000000e+000  1.293715e+000
    endloop
  endfacet
  facet normal  3.382544e-015 -9.999999e-001 -1.847893e-015
    outer loop
      vertex -2.296235e+000  3.552714e-015  1.513210e+000
      vertex -3.466454e+000  0.000000e+000  1.293715e+000
      vertex -2.513983e+000  3.552714e-015  1.114624e+000
    endloop
  endfacet
  facet normal  3.534704e-015 -1.000000e+000 -1.038655e-015
    outer loop
      vertex -2.513983e+000  3.552714e-015  1.114624e+000
      vertex -3.466454e+000  0.000000e+000  1.293715e+000
      vertex -3.615285e+000  0.000000e+000  7.872189e-001
    endloop
  endfacet
  facet normal  3.597859e-015 -1.000000e+000 -1.251092e-015
    outer loop
      vertex -2.513983e+000  3.552714e-015  1.114624e+000
      vertex -3.615285e+000  0.000000e+000  7.872189e-001
      vertex -2.663157e+000  3.552714e-015  6.856340e-001
    endloop
  endfacet
  facet normal  3.674888e-015 -1.000000e+000 -5.291227e-016
    outer loop
      vertex -2.663157e+000  3.552714e-015  6.856340e-001
      vertex -3.615285e+000  0.000000e+000  7.872189e-001
      vertex -3.690520e+000  0.000000e+000  2.646974e-001
    endloop
  endfacet
  facet normal  3.718536e-015 -9.999999e-001 -6.356545e-016
    outer loop
      vertex -2.663157e+000  3.552714e-015  6.856340e-001
      vertex -3.690520e+000  0.000000e+000  2.646974e-001
      vertex -2.739687e+000  3.552714e-015  2.379416e-001
    endloop
  endfacet
  facet normal  3.736402e-015 -1.000000e+000 -7.526078e-019
    outer loop
      vertex -2.739687e+000  3.552714e-015  2.379416e-001
      vertex -3.690520e+000  0.000000e+000  2.646974e-001
      vertex -3.690626e+000  0.000000e+000 -2.632125e-001
    endloop
  endfacet
  facet normal  3.743817e-015 -1.000000e+000 -1.482213e-017
    outer loop
      vertex -2.739687e+000  3.552714e-015  2.379416e-001
      vertex -3.690626e+000  0.000000e+000 -2.632125e-001
      vertex -2.741485e+000  3.552714e-015 -2.162412e-001
    endloop
  endfacet
  facet normal  3.716675e-015 -1.000000e+000  5.336146e-016
    outer loop
      vertex -2.741485e+000  3.552714e-015 -2.162412e-001
      vertex -3.690626e+000  0.000000e+000 -2.632125e-001
      vertex -3.615602e+000  0.000000e+000 -7.857642e-001
    endloop
  endfacet
  facet normal  3.674573e-015 -1.000000e+000  5.982339e-016
    outer loop
      vertex -2.741485e+000  3.552714e-015 -2.162412e-001
      vertex -3.615602e+000  0.000000e+000 -7.857642e-001
      vertex -2.668503e+000  3.552714e-015 -6.645256e-001
    endloop
  endfacet
  facet normal  3.615363e-015 -1.000000e+000  1.060776e-015
    outer loop
      vertex -2.668503e+000  3.552714e-015 -6.645256e-001
      vertex -3.615602e+000  0.000000e+000 -7.857642e-001
      vertex -3.466974e+000  0.000000e+000 -1.292320e+000
    endloop
  endfacet
  facet normal  3.513298e-015 -1.000000e+000  1.190589e-015
    outer loop
      vertex -2.668503e+000  3.552714e-015 -6.645256e-001
      vertex -3.466974e+000  0.000000e+000 -1.292320e+000
      vertex -2.522730e+000  3.552714e-015 -1.094683e+000
    endloop
  endfacet
  facet normal  2.016850e-015 -1.000000e+000 -4.647886e-015
    outer loop
      vertex -8.826191e-001  3.552714e-015  2.604512e+000
      vertex -2.615769e+000  0.000000e+000  2.616821e+000
      vertex -1.299270e+000  3.552714e-015  2.423716e+000
    endloop
  endfacet
  facet normal  2.394183e-015 -1.000000e+000 -2.075415e-015
    outer loop
      vertex -1.299270e+000  3.552714e-015  2.423716e+000
      vertex -2.615769e+000  0.000000e+000  2.616821e+000
      vertex -2.961556e+000  0.000000e+000  2.217923e+000
    endloop
  endfacet
  facet normal  2.642292e-015 -1.000000e+000 -4.079510e-015
    outer loop
      vertex -1.299270e+000  3.552714e-015  2.423716e+000
      vertex -2.961556e+000  0.000000e+000  2.217923e+000
      vertex -1.680480e+000  3.552714e-015  2.176806e+000
    endloop
  endfacet
  facet normal  2.717155e-015 -9.999999e-001 -1.746983e-015
    outer loop
      vertex -1.680480e+000  3.552714e-015  2.176806e+000
      vertex -2.961556e+000  0.000000e+000  2.217923e+000
      vertex -3.247056e+000  0.000000e+000  1.773875e+000
    endloop
  endfacet
  facet normal  3.156896e-015 -1.000000e+000 -3.456669e-015
    outer loop
      vertex -1.680480e+000  3.552714e-015  2.176806e+000
      vertex -3.247056e+000  0.000000e+000  1.773875e+000
      vertex -2.015851e+000  3.552714e-015  1.870520e+000
    endloop
  endfacet
  facet normal  2.033188e-015 -1.000000e+000 -2.347377e-015
    outer loop
      vertex -2.615769e+000  0.000000e+000  2.616821e+000
      vertex -8.826191e-001  3.552714e-015  2.604512e+000
      vertex -2.216732e+000  0.000000e+000  2.962449e+000
    endloop
  endfacet
  facet normal  1.281892e-015 -1.000000e+000 -5.147633e-015
    outer loop
      vertex -2.216732e+000  0.000000e+000  2.962449e+000
      vertex -8.826191e-001  3.552714e-015  2.604512e+000
      vertex -4.418927e-001  3.552714e-015  2.714264e+000
    endloop
  endfacet
  facet normal -2.642292e-015 -1.000000e+000  4.079510e-015
    outer loop
      vertex  1.680480e+000  3.552714e-015 -2.176806e+000
      vertex  1.299270e+000  3.552714e-015 -2.423716e+000
      vertex  2.961556e+000  0.000000e+000 -2.217923e+000
    endloop
  endfacet
  facet normal -2.990419e-015 -9.999999e-001  6.891502e-015
    outer loop
      vertex  2.961556e+000  0.000000e+000 -2.217923e+000
      vertex  1.299270e+000  3.552714e-015 -2.423716e+000
      vertex  8.826191e-001  3.552714e-015 -2.604512e+000
    endloop
  endfacet
  facet normal -2.037317e-015 -1.000000e+000  1.766063e-015
    outer loop
      vertex  2.961556e+000  0.000000e+000 -2.217923e+000
      vertex  8.826191e-001  3.552714e-015 -2.604512e+000
      vertex  2.615769e+000  0.000000e+000 -2.616821e+000
    endloop
  endfacet
  facet normal -3.382544e-015 -9.999999e-001  1.847893e-015
    outer loop
      vertex  2.513983e+000  3.552714e-015 -1.114624e+000
      vertex  2.296235e+000  3.552714e-015 -1.513210e+000
      vertex  3.466454e+000  0.000000e+000 -1.293715e+000
    endloop
  endfacet
  facet normal -3.559907e-015 -1.000000e+000  2.793488e-015
    outer loop
      vertex  3.466454e+000  0.000000e+000 -1.293715e+000
      vertex  2.296235e+000  3.552714e-015 -1.513210e+000
      vertex  2.015851e+000  3.552714e-015 -1.870520e+000
    endloop
  endfacet
  facet normal -2.992907e-015 -1.000000e+000  1.367542e-015
    outer loop
      vertex  3.466454e+000  0.000000e+000 -1.293715e+000
      vertex  2.015851e+000  3.552714e-015 -1.870520e+000
      vertex  3.247056e+000  0.000000e+000 -1.773875e+000
    endloop
  endfacet
  facet normal -3.156896e-015 -1.000000e+000  3.456669e-015
    outer loop
      vertex  3.247056e+000  0.000000e+000 -1.773875e+000
      vertex  2.015851e+000  3.552714e-015 -1.870520e+000
      vertex  1.680480e+000  3.552714e-015 -2.176806e+000
    endloop
  endfacet
  facet normal -2.717155e-015 -9.999999e-001  1.746983e-015
    outer loop
      vertex  3.247056e+000  0.000000e+000 -1.773875e+000
      vertex  1.680480e+000  3.552714e-015 -2.176806e+000
      vertex  2.961556e+000  0.000000e+000 -2.217923e+000
    endloop
  endfacet
  facet normal -3.078823e-015 -1.000000e+000 -2.376831e-015
    outer loop
      vertex  2.030599e+000  3.552714e-015  1.854500e+000
      vertex  2.308145e+000  3.552714e-015  1.494981e+000
      vertex  3.247769e+000  0.000000e+000  1.772568e+000
    endloop
  endfacet
  facet normal -3.264075e-015 -1.000000e+000 -1.749758e-015
    outer loop
      vertex  3.247769e+000  0.000000e+000  1.772568e+000
      vertex  2.308145e+000  3.552714e-015  1.494981e+000
      vertex  2.522730e+000  3.552714e-015  1.094683e+000
    endloop
  endfacet
  facet normal -3.434388e-015 -1.000000e+000 -1.567598e-015
    outer loop
      vertex  3.247769e+000  0.000000e+000  1.772568e+000
      vertex  2.522730e+000  3.552714e-015  1.094683e+000
      vertex  3.466974e+000  0.000000e+000  1.292320e+000
    endloop
  endfacet
  facet normal -3.513298e-015 -1.000000e+000 -1.190589e-015
    outer loop
      vertex  3.466974e+000  0.000000e+000  1.292320e+000
      vertex  2.522730e+000  3.552714e-015  1.094683e+000
      vertex  2.668503e+000  3.552714e-015  6.645256e-001
    endloop
  endfacet
  facet normal -3.615363e-015 -1.000000e+000 -1.060776e-015
    outer loop
      vertex  3.466974e+000  0.000000e+000  1.292320e+000
      vertex  2.668503e+000  3.552714e-015  6.645256e-001
      vertex  3.615602e+000  0.000000e+000  7.857642e-001
    endloop
  endfacet
  facet normal -3.674573e-015 -1.000000e+000 -5.982339e-016
    outer loop
      vertex  3.615602e+000  0.000000e+000  7.857642e-001
      vertex  2.668503e+000  3.552714e-015  6.645256e-001
      vertex  2.741485e+000  3.552714e-015  2.162412e-001
    endloop
  endfacet
  facet normal -3.716675e-015 -1.000000e+000 -5.336146e-016
    outer loop
      vertex  3.615602e+000  0.000000e+000  7.857642e-001
      vertex  2.741485e+000  3.552714e-015  2.162412e-001
      vertex  3.690626e+000  0.000000e+000  2.632125e-001
    endloop
  endfacet
  facet normal -3.743817e-015 -1.000000e+000  1.482213e-017
    outer loop
      vertex  3.690626e+000  0.000000e+000  2.632125e-001
      vertex  2.741485e+000  3.552714e-015  2.162412e-001
      vertex  2.739687e+000  3.552714e-015 -2.379416e-001
    endloop
  endfacet
  facet normal -3.736402e-015 -1.000000e+000  7.526078e-019
    outer loop
      vertex  3.690626e+000  0.000000e+000  2.632125e-001
      vertex  2.739687e+000  3.552714e-015 -2.379416e-001
      vertex  3.690520e+000  0.000000e+000 -2.646974e-001
    endloop
  endfacet
  facet normal -3.718536e-015 -9.999999e-001  6.356545e-016
    outer loop
      vertex  3.690520e+000  0.000000e+000 -2.646974e-001
      vertex  2.739687e+000  3.552714e-015 -2.379416e-001
      vertex  2.663157e+000  3.552714e-015 -6.856340e-001
    endloop
  endfacet
  facet normal -3.674888e-015 -1.000000e+000  5.291227e-016
    outer loop
      vertex  3.690520e+000  0.000000e+000 -2.646974e-001
      vertex  2.663157e+000  3.552714e-015 -6.856340e-001
      vertex  3.615285e+000  0.000000e+000 -7.872189e-001
    endloop
  endfacet
  facet normal -3.597859e-015 -1.000000e+000  1.251092e-015
    outer loop
      vertex  3.615285e+000  0.000000e+000 -7.872189e-001
      vertex  2.663157e+000  3.552714e-015 -6.856340e-001
      vertex  2.513983e+000  3.552714e-015 -1.114624e+000
    endloop
  endfacet
  facet normal -3.534704e-015 -1.000000e+000  1.038655e-015
    outer loop
      vertex  3.615285e+000  0.000000e+000 -7.872189e-001
      vertex  2.513983e+000  3.552714e-015 -1.114624e+000
      vertex  3.466454e+000  0.000000e+000 -1.293715e+000
    endloop
  endfacet
  facet normal -2.024405e-015 -1.000000e+000 -4.565951e-015
    outer loop
      vertex  9.032140e-001  3.552714e-015  2.597442e+000
      vertex  1.318420e+000  3.552714e-015  2.413352e+000
      vertex  2.616821e+000  0.000000e+000  2.615769e+000
    endloop
  endfacet
  facet normal -2.212756e-015 -1.000000e+000 -3.357768e-015
    outer loop
      vertex  2.616821e+000  0.000000e+000  2.615769e+000
      vertex  1.318420e+000  3.552714e-015  2.413352e+000
      vertex  1.697663e+000  3.552714e-015  2.163432e+000
    endloop
  endfacet
  facet normal -2.710029e-015 -1.000000e+000 -2.347300e-015
    outer loop
      vertex  2.616821e+000  0.000000e+000  2.615769e+000
      vertex  1.697663e+000  3.552714e-015  2.163432e+000
      vertex  2.962449e+000  0.000000e+000  2.216732e+000
    endloop
  endfacet
  facet normal -2.686919e-015 -1.000000e+000 -2.895681e-015
    outer loop
      vertex  2.962449e+000  0.000000e+000  2.216732e+000
      vertex  1.697663e+000  3.552714e-015  2.163432e+000
      vertex  2.030599e+000  3.552714e-015  1.854500e+000
    endloop
  endfacet
  facet normal -3.050746e-015 -1.000000e+000 -1.959728e-015
    outer loop
      vertex  2.962449e+000  0.000000e+000  2.216732e+000
      vertex  2.030599e+000  3.552714e-015  1.854500e+000
      vertex  3.247769e+000  0.000000e+000  1.772568e+000
    endloop
  endfacet
  facet normal -1.301831e-015 -1.000000e+000 -5.056609e-015
    outer loop
      vertex  4.633705e-001  3.552714e-015  2.710680e+000
      vertex  9.032140e-001  3.552714e-015  2.597442e+000
      vertex  2.217923e+000  0.000000e+000  2.961556e+000
    endloop
  endfacet
  facet normal -2.047970e-015 -1.000000e+000 -2.362522e-015
    outer loop
      vertex  2.217923e+000  0.000000e+000  2.961556e+000
      vertex  9.032140e-001  3.552714e-015  2.597442e+000
      vertex  2.616821e+000  0.000000e+000  2.615769e+000
    endloop
  endfacet
  facet normal  4.155979e-001  0.000000e+000  9.095484e-001
    outer loop
      vertex  1.773875e+000  0.000000e+000  3.247056e+000
      vertex  1.773875e+000  4.000000e+000  3.247056e+000
      vertex  1.293715e+000  0.000000e+000  3.466454e+000
    endloop
  endfacet
  facet normal  4.155979e-001  -0.000000e+000  9.095484e-001
    outer loop
      vertex  1.293715e+000  0.000000e+000  3.466454e+000
      vertex  1.773875e+000  4.000000e+000  3.247056e+000
      vertex  1.293715e+000  4.000000e+000  3.466454e+000
    endloop
  endfacet
  facet normal  2.819256e-001  0.000000e+000  9.594362e-001
    outer loop
      vertex  1.293715e+000  0.000000e+000  3.466454e+000
      vertex  1.293715e+000  4.000000e+000  3.466454e+000
      vertex  7.872189e-001  0.000000e+000  3.615285e+000
    endloop
  endfacet
  facet normal  2.819256e-001  -0.000000e+000  9.594362e-001
    outer loop
      vertex  7.872189e-001  0.000000e+000  3.615285e+000
      vertex  1.293715e+000  4.000000e+000  3.466454e+000
      vertex  7.872189e-001  4.000000e+000  3.615285e+000
    endloop
  endfacet
  facet normal  1.425137e-001  0.000000e+000  9.897929e-001
    outer loop
      vertex  7.872189e-001  0.000000e+000  3.615285e+000
      vertex  7.872189e-001  4.000000e+000  3.615285e+000
      vertex  2.646974e-001  0.000000e+000  3.690520e+000
    endloop
  endfacet
  facet normal  1.425137e-001  -0.000000e+000  9.897929e-001
    outer loop
      vertex  2.646974e-001  0.000000e+000  3.690520e+000
      vertex  7.872189e-001  4.000000e+000  3.615285e+000
      vertex  2.646974e-001  4.000000e+000  3.690520e+000
    endloop
  endfacet
  facet normal  2.014258e-004  0.000000e+000  1.000000e+000
    outer loop
      vertex  2.646974e-001  0.000000e+000  3.690520e+000
      vertex  2.646974e-001  4.000000e+000  3.690520e+000
      vertex -2.632125e-001  0.000000e+000  3.690626e+000
    endloop
  endfacet
  facet normal  2.014258e-004  -0.000000e+000  1.000000e+000
    outer loop
      vertex -2.632125e-001  0.000000e+000  3.690626e+000
      vertex  2.646974e-001  4.000000e+000  3.690520e+000
      vertex -2.632125e-001  4.000000e+000  3.690626e+000
    endloop
  endfacet
  facet normal -1.421158e-001  0.000000e+000  9.898500e-001
    outer loop
      vertex -2.632125e-001  0.000000e+000  3.690626e+000
      vertex -2.632125e-001  4.000000e+000  3.690626e+000
      vertex -7.857642e-001  0.000000e+000  3.615602e+000
    endloop
  endfacet
  facet normal -1.421158e-001  0.000000e+000  9.898500e-001
    outer loop
      vertex -7.857642e-001  0.000000e+000  3.615602e+000
      vertex -2.632125e-001  4.000000e+000  3.690626e+000
      vertex -7.857642e-001  4.000000e+000  3.615602e+000
    endloop
  endfacet
  facet normal -2.815396e-001  0.000000e+000  9.595497e-001
    outer loop
      vertex -7.857642e-001  0.000000e+000  3.615602e+000
      vertex -7.857642e-001  4.000000e+000  3.615602e+000
      vertex -1.292320e+000  0.000000e+000  3.466974e+000
    endloop
  endfacet
  facet normal -2.815396e-001  0.000000e+000  9.595497e-001
    outer loop
      vertex -1.292320e+000  0.000000e+000  3.466974e+000
      vertex -7.857642e-001  4.000000e+000  3.615602e+000
      vertex -1.292320e+000  4.000000e+000  3.466974e+000
    endloop
  endfacet
  facet normal -4.152320e-001  0.000000e+000  9.097155e-001
    outer loop
      vertex -1.292320e+000  0.000000e+000  3.466974e+000
      vertex -1.292320e+000  4.000000e+000  3.466974e+000
      vertex -1.772568e+000  0.000000e+000  3.247769e+000
    endloop
  endfacet
  facet normal -4.152320e-001  0.000000e+000  9.097155e-001
    outer loop
      vertex -1.772568e+000  0.000000e+000  3.247769e+000
      vertex -1.292320e+000  4.000000e+000  3.466974e+000
      vertex -1.772568e+000  4.000000e+000  3.247769e+000
    endloop
  endfacet
  facet normal -5.404714e-001  0.000000e+000  8.413623e-001
    outer loop
      vertex -1.772568e+000  0.000000e+000  3.247769e+000
      vertex -1.772568e+000  4.000000e+000  3.247769e+000
      vertex -2.216732e+000  0.000000e+000  2.962449e+000
    endloop
  endfacet
  facet normal -5.404714e-001  0.000000e+000  8.413623e-001
    outer loop
      vertex -2.216732e+000  0.000000e+000  2.962449e+000
      vertex -1.772568e+000  4.000000e+000  3.247769e+000
      vertex -2.216732e+000  4.000000e+000  2.962449e+000
    endloop
  endfacet
  facet normal -6.547089e-001  0.000000e+000  7.558811e-001
    outer loop
      vertex -2.216732e+000  0.000000e+000  2.962449e+000
      vertex -2.216732e+000  4.000000e+000  2.962449e+000
      vertex -2.615769e+000  0.000000e+000  2.616821e+000
    endloop
  endfacet
  facet normal -6.547089e-001  0.000000e+000  7.558811e-001
    outer loop
      vertex -2.615769e+000  0.000000e+000  2.616821e+000
      vertex -2.216732e+000  4.000000e+000  2.962449e+000
      vertex -2.615769e+000  4.000000e+000  2.616821e+000
    endloop
  endfacet
  facet normal -7.556178e-001  0.000000e+000  6.550128e-001
    outer loop
      vertex -2.615769e+000  0.000000e+000  2.616821e+000
      vertex -2.615769e+000  4.000000e+000  2.616821e+000
      vertex -2.961556e+000  0.000000e+000  2.217923e+000
    endloop
  endfacet
  facet normal -7.556178e-001  0.000000e+000  6.550128e-001
    outer loop
      vertex -2.961556e+000  0.000000e+000  2.217923e+000
      vertex -2.615769e+000  4.000000e+000  2.616821e+000
      vertex -2.961556e+000  4.000000e+000  2.217923e+000
    endloop
  endfacet
  facet normal -8.411446e-001  0.000000e+000  5.408102e-001
    outer loop
      vertex -2.961556e+000  0.000000e+000  2.217923e+000
      vertex -2.961556e+000  4.000000e+000  2.217923e+000
      vertex -3.247056e+000  0.000000e+000  1.773875e+000
    endloop
  endfacet
  facet normal -8.411446e-001  0.000000e+000  5.408102e-001
    outer loop
      vertex -3.247056e+000  0.000000e+000  1.773875e+000
      vertex -2.961556e+000  4.000000e+000  2.217923e+000
      vertex -3.247056e+000  4.000000e+000  1.773875e+000
    endloop
  endfacet
  facet normal -9.095484e-001  0.000000e+000  4.155979e-001
    outer loop
      vertex -3.247056e+000  0.000000e+000  1.773875e+000
      vertex -3.247056e+000  4.000000e+000  1.773875e+000
      vertex -3.466454e+000  0.000000e+000  1.293715e+000
    endloop
  endfacet
  facet normal -9.095484e-001  0.000000e+000  4.155979e-001
    outer loop
      vertex -3.466454e+000  0.000000e+000  1.293715e+000
      vertex -3.247056e+000  4.000000e+000  1.773875e+000
      vertex -3.466454e+000  4.000000e+000  1.293715e+000
    endloop
  endfacet
  facet normal -9.594362e-001  0.000000e+000  2.819256e-001
    outer loop
      vertex -3.466454e+000  0.000000e+000  1.293715e+000
      vertex -3.466454e+000  4.000000e+000  1.293715e+000
      vertex -3.615285e+000  0.000000e+000  7.872189e-001
    endloop
  endfacet
  facet normal -9.594362e-001  0.000000e+000  2.819256e-001
    outer loop
      vertex -3.615285e+000  0.000000e+000  7.872189e-001
      vertex -3.466454e+000  4.000000e+000  1.293715e+000
      vertex -3.615285e+000  4.000000e+000  7.872189e-001
    endloop
  endfacet
  facet normal -9.897929e-001  0.000000e+000  1.425137e-001
    outer loop
      vertex -3.615285e+000  0.000000e+000  7.872189e-001
      vertex -3.615285e+000  4.000000e+000  7.872189e-001
      vertex -3.690520e+000  0.000000e+000  2.646974e-001
    endloop
  endfacet
  facet normal -9.897929e-001  0.000000e+000  1.425137e-001
    outer loop
      vertex -3.690520e+000  0.000000e+000  2.646974e-001
      vertex -3.615285e+000  4.000000e+000  7.872189e-001
      vertex -3.690520e+000  4.000000e+000  2.646974e-001
    endloop
  endfacet
  facet normal -1.000000e+000  0.000000e+000  2.014258e-004
    outer loop
      vertex -3.690520e+000  0.000000e+000  2.646974e-001
      vertex -3.690520e+000  4.000000e+000  2.646974e-001
      vertex -3.690626e+000  0.000000e+000 -2.632125e-001
    endloop
  endfacet
  facet normal -1.000000e+000  0.000000e+000  2.014258e-004
    outer loop
      vertex -3.690626e+000  0.000000e+000 -2.632125e-001
      vertex -3.690520e+000  4.000000e+000  2.646974e-001
      vertex -3.690626e+000  4.000000e+000 -2.632125e-001
    endloop
  endfacet
  facet normal -9.898500e-001  -0.000000e+000 -1.421158e-001
    outer loop
      vertex -3.690626e+000  0.000000e+000 -2.632125e-001
      vertex -3.690626e+000  4.000000e+000 -2.632125e-001
      vertex -3.615602e+000  0.000000e+000 -7.857642e-001
    endloop
  endfacet
  facet normal -9.898500e-001  0.000000e+000 -1.421158e-001
    outer loop
      vertex -3.615602e+000  0.000000e+000 -7.857642e-001
      vertex -3.690626e+000  4.000000e+000 -2.632125e-001
      vertex -3.615602e+000  4.000000e+000 -7.857642e-001
    endloop
  endfacet
  facet normal -9.595497e-001  -0.000000e+000 -2.815396e-001
    outer loop
      vertex -3.615602e+000  0.000000e+000 -7.857642e-001
      vertex -3.615602e+000  4.000000e+000 -7.857642e-001
      vertex -3.466974e+000  0.000000e+000 -1.292320e+000
    endloop
  endfacet
  facet normal -9.595497e-001  0.000000e+000 -2.815396e-001
    outer loop
      vertex -3.466974e+000  0.000000e+000 -1.292320e+000
      vertex -3.615602e+000  4.000000e+000 -7.857642e-001
      vertex -3.466974e+000  4.000000e+000 -1.292320e+000
    endloop
  endfacet
  facet normal -9.097155e-001  -0.000000e+000 -4.152320e-001
    outer loop
      vertex -3.466974e+000  0.000000e+000 -1.292320e+000
      vertex -3.466974e+000  4.000000e+000 -1.292320e+000
      vertex -3.247769e+000  0.000000e+000 -1.772568e+000
    endloop
  endfacet
  facet normal -9.097155e-001  0.000000e+000 -4.152320e-001
    outer loop
      vertex -3.247769e+000  0.000000e+000 -1.772568e+000
      vertex -3.466974e+000  4.000000e+000 -1.292320e+000
      vertex -3.247769e+000  4.000000e+000 -1.772568e+000
    endloop
  endfacet
  facet normal -8.413623e-001  -0.000000e+000 -5.404714e-001
    outer loop
      vertex -3.247769e+000  0.000000e+000 -1.772568e+000
      vertex -3.247769e+000  4.000000e+000 -1.772568e+000
      vertex -2.962449e+000  0.000000e+000 -2.216732e+000
    endloop
  endfacet
  facet normal -8.413623e-001  0.000000e+000 -5.404714e-001
    outer loop
      vertex -2.962449e+000  0.000000e+000 -2.216732e+000
      vertex -3.247769e+000  4.000000e+000 -1.772568e+000
      vertex -2.962449e+000  4.000000e+000 -2.216732e+000
    endloop
  endfacet
  facet normal -7.558811e-001  -0.000000e+000 -6.547089e-001
    outer loop
      vertex -2.962449e+000  0.000000e+000 -2.216732e+000
      vertex -2.962449e+000  4.000000e+000 -2.216732e+000
      vertex -2.616821e+000  0.000000e+000 -2.615769e+000
    endloop
  endfacet
  facet normal -7.558811e-001  0.000000e+000 -6.547089e-001
    outer loop
      vertex -2.616821e+000  0.000000e+000 -2.615769e+000
      vertex -2.962449e+000  4.000000e+000 -2.216732e+000
      vertex -2.616821e+000  4.000000e+000 -2.615769e+000
    endloop
  endfacet
  facet normal -6.550128e-001  -0.000000e+000 -7.556178e-001
    outer loop
      vertex -2.616821e+000  0.000000e+000 -2.615769e+000
      vertex -2.616821e+000  4.000000e+000 -2.615769e+000
      vertex -2.217923e+000  0.000000e+000 -2.961556e+000
    endloop
  endfacet
  facet normal -6.550128e-001  0.000000e+000 -7.556178e-001
    outer loop
      vertex -2.217923e+000  0.000000e+000 -2.961556e+000
      vertex -2.616821e+000  4.000000e+000 -2.615769e+000
      vertex -2.217923e+000  4.000000e+000 -2.961556e+000
    endloop
  endfacet
  facet normal -5.408102e-001  -0.000000e+000 -8.411446e-001
    outer loop
      vertex -2.217923e+000  0.000000e+000 -2.961556e+000
      vertex -2.217923e+000  4.000000e+000 -2.961556e+000
      vertex -1.773875e+000  0.000000e+000 -3.247056e+000
    endloop
  endfacet
  facet normal -5.408102e-001  0.000000e+000 -8.411446e-001
    outer loop
      vertex -1.773875e+000  0.000000e+000 -3.247056e+000
      vertex -2.217923e+000  4.000000e+000 -2.961556e+000
      vertex -1.773875e+000  4.000000e+000 -3.247056e+000
    endloop
  endfacet
  facet normal  7.867028e-001  0.000000e+000 -6.173320e-001
    outer loop
      vertex -2.296235e+000  3.552714e-015  1.513210e+000
      vertex -2.015851e+000  1.800000e+001  1.870520e+000
      vertex -2.015851e+000  3.552714e-015  1.870520e+000
    endloop
  endfacet
  facet normal  6.743633e-001  0.000000e+000 -7.383997e-001
    outer loop
      vertex -2.015851e+000  3.552714e-015  1.870520e+000
      vertex -2.015851e+000  1.800000e+001  1.870520e+000
      vertex -1.680480e+000  1.800000e+001  2.176806e+000
    endloop
  endfacet
  facet normal  6.743633e-001  0.000000e+000 -7.383997e-001
    outer loop
      vertex -2.015851e+000  3.552714e-015  1.870520e+000
      vertex -1.680480e+000  1.800000e+001  2.176806e+000
      vertex -1.680480e+000  3.552714e-015  2.176806e+000
    endloop
  endfacet
  facet normal  5.436295e-001  0.000000e+000 -8.393252e-001
    outer loop
      vertex -1.680480e+000  3.552714e-015  2.176806e+000
      vertex -1.680480e+000  1.800000e+001  2.176806e+000
      vertex -1.299270e+000  1.800000e+001  2.423716e+000
    endloop
  endfacet
  facet normal  5.436295e-001  0.000000e+000 -8.393252e-001
    outer loop
      vertex -1.680480e+000  3.552714e-015  2.176806e+000
      vertex -1.299270e+000  1.800000e+001  2.423716e+000
      vertex -1.299270e+000  3.552714e-015  2.423716e+000
    endloop
  endfacet
  facet normal  3.980670e-001  0.000000e+000 -9.173564e-001
    outer loop
      vertex -1.299270e+000  3.552714e-015  2.423716e+000
      vertex -1.299270e+000  1.800000e+001  2.423716e+000
      vertex -8.826191e-001  1.800000e+001  2.604512e+000
    endloop
  endfacet
  facet normal  3.980670e-001  0.000000e+000 -9.173564e-001
    outer loop
      vertex -1.299270e+000  3.552714e-015  2.423716e+000
      vertex -8.826191e-001  1.800000e+001  2.604512e+000
      vertex -8.826191e-001  3.552714e-015  2.604512e+000
    endloop
  endfacet
  facet normal  2.416457e-001  0.000000e+000 -9.703646e-001
    outer loop
      vertex -8.826191e-001  3.552714e-015  2.604512e+000
      vertex -8.826191e-001  1.800000e+001  2.604512e+000
      vertex -4.418927e-001  1.800000e+001  2.714264e+000
    endloop
  endfacet
  facet normal  2.416457e-001  0.000000e+000 -9.703646e-001
    outer loop
      vertex -8.826191e-001  3.552714e-015  2.604512e+000
      vertex -4.418927e-001  1.800000e+001  2.714264e+000
      vertex -4.418927e-001  3.552714e-015  2.714264e+000
    endloop
  endfacet
  facet normal  7.863323e-002  0.000000e+000 -9.969036e-001
    outer loop
      vertex -4.418927e-001  3.552714e-015  2.714264e+000
      vertex -4.418927e-001  1.800000e+001  2.714264e+000
      vertex  1.088737e-002  1.800000e+001  2.749979e+000
    endloop
  endfacet
  facet normal  7.863323e-002  0.000000e+000 -9.969036e-001
    outer loop
      vertex -4.418927e-001  3.552714e-015  2.714264e+000
      vertex  1.088737e-002  1.800000e+001  2.749979e+000
      vertex  1.088737e-002  3.552714e-015  2.749979e+000
    endloop
  endfacet
  facet normal -8.652460e-002  0.000000e+000 -9.962497e-001
    outer loop
      vertex  1.088737e-002  3.552714e-015  2.749979e+000
      vertex  1.088737e-002  1.800000e+001  2.749979e+000
      vertex  4.633705e-001  1.800000e+001  2.710680e+000
    endloop
  endfacet
  facet normal -8.652460e-002  -0.000000e+000 -9.962497e-001
    outer loop
      vertex  1.088737e-002  3.552714e-015  2.749979e+000
      vertex  4.633705e-001  1.800000e+001  2.710680e+000
      vertex  4.633705e-001  3.552714e-015  2.710680e+000
    endloop
  endfacet
  facet normal -2.493213e-001  0.000000e+000 -9.684208e-001
    outer loop
      vertex  4.633705e-001  3.552714e-015  2.710680e+000
      vertex  4.633705e-001  1.800000e+001  2.710680e+000
      vertex  9.032140e-001  1.800000e+001  2.597442e+000
    endloop
  endfacet
  facet normal -2.493213e-001  -0.000000e+000 -9.684208e-001
    outer loop
      vertex  4.633705e-001  3.552714e-015  2.710680e+000
      vertex  9.032140e-001  1.800000e+001  2.597442e+000
      vertex  9.032140e-001  3.552714e-015  2.597442e+000
    endloop
  endfacet
  facet normal -4.053180e-001  0.000000e+000 -9.141758e-001
    outer loop
      vertex  9.032140e-001  3.552714e-015  2.597442e+000
      vertex  9.032140e-001  1.800000e+001  2.597442e+000
      vertex  1.318420e+000  1.800000e+001  2.413352e+000
    endloop
  endfacet
  facet normal -4.053180e-001  -0.000000e+000 -9.141758e-001
    outer loop
      vertex  9.032140e-001  3.552714e-015  2.597442e+000
      vertex  1.318420e+000  1.800000e+001  2.413352e+000
      vertex  1.318420e+000  3.552714e-015  2.413352e+000
    endloop
  endfacet
  facet normal  7.867028e-001  0.000000e+000 -6.173320e-001
    outer loop
      vertex -2.015851e+000  1.800000e+001  1.870520e+000
      vertex -2.296235e+000  3.552714e-015  1.513210e+000
      vertex -2.296235e+000  1.800000e+001  1.513210e+000
    endloop
  endfacet
  facet normal  8.775826e-001  0.000000e+000 -4.794257e-001
    outer loop
      vertex -2.296235e+000  1.800000e+001  1.513210e+000
      vertex -2.296235e+000  3.552714e-015  1.513210e+000
      vertex -2.513983e+000  3.552714e-015  1.114624e+000
    endloop
  endfacet
  facet normal  8.775826e-001  0.000000e+000 -4.794257e-001
    outer loop
      vertex -2.296235e+000  1.800000e+001  1.513210e+000
      vertex -2.513983e+000  3.552714e-015  1.114624e+000
      vertex -2.513983e+000  1.800000e+001  1.114624e+000
    endloop
  endfacet
  facet normal  9.445243e-001  0.000000e+000 -3.284416e-001
    outer loop
      vertex -2.513983e+000  1.800000e+001  1.114624e+000
      vertex -2.513983e+000  3.552714e-015  1.114624e+000
      vertex -2.663157e+000  3.552714e-015  6.856340e-001
    endloop
  endfacet
  facet normal  9.445243e-001  0.000000e+000 -3.284416e-001
    outer loop
      vertex -2.513983e+000  1.800000e+001  1.114624e+000
      vertex -2.663157e+000  3.552714e-015  6.856340e-001
      vertex -2.663157e+000  1.800000e+001  6.856340e-001
    endloop
  endfacet
  facet normal  9.857020e-001  0.000000e+000 -1.684980e-001
    outer loop
      vertex -2.663157e+000  1.800000e+001  6.856340e-001
      vertex -2.663157e+000  3.552714e-015  6.856340e-001
      vertex -2.739687e+000  3.552714e-015  2.379416e-001
    endloop
  endfacet
  facet normal  9.857020e-001  0.000000e+000 -1.684980e-001
    outer loop
      vertex -2.663157e+000  1.800000e+001  6.856340e-001
      vertex -2.739687e+000  3.552714e-015  2.379416e-001
      vertex -2.739687e+000  1.800000e+001  2.379416e-001
    endloop
  endfacet
  facet normal  9.999922e-001  0.000000e+000 -3.959064e-003
    outer loop
      vertex -2.739687e+000  1.800000e+001  2.379416e-001
      vertex -2.739687e+000  3.552714e-015  2.379416e-001
      vertex -2.741485e+000  3.552714e-015 -2.162412e-001
    endloop
  endfacet
  facet normal  9.999922e-001  0.000000e+000 -3.959064e-003
    outer loop
      vertex -2.739687e+000  1.800000e+001  2.379416e-001
      vertex -2.741485e+000  3.552714e-015 -2.162412e-001
      vertex -2.741485e+000  1.800000e+001 -2.162412e-001
    endloop
  endfacet
  facet normal  9.870053e-001  0.000000e+000  1.606880e-001
    outer loop
      vertex -2.741485e+000  1.800000e+001 -2.162412e-001
      vertex -2.741485e+000  3.552714e-015 -2.162412e-001
      vertex -2.668503e+000  3.552714e-015 -6.645256e-001
    endloop
  endfacet
  facet normal  9.870053e-001  -0.000000e+000  1.606880e-001
    outer loop
      vertex -2.741485e+000  1.800000e+001 -2.162412e-001
      vertex -2.668503e+000  3.552714e-015 -6.645256e-001
      vertex -2.668503e+000  1.800000e+001 -6.645256e-001
    endloop
  endfacet
  facet normal  9.470953e-001  0.000000e+000  3.209524e-001
    outer loop
      vertex -2.668503e+000  1.800000e+001 -6.645256e-001
      vertex -2.668503e+000  3.552714e-015 -6.645256e-001
      vertex -2.522730e+000  3.552714e-015 -1.094683e+000
    endloop
  endfacet
  facet normal  9.470953e-001  -0.000000e+000  3.209524e-001
    outer loop
      vertex -2.668503e+000  1.800000e+001 -6.645256e-001
      vertex -2.522730e+000  3.552714e-015 -1.094683e+000
      vertex -2.522730e+000  1.800000e+001 -1.094683e+000
    endloop
  endfacet
  facet normal  8.813511e-001  0.000000e+000  4.724619e-001
    outer loop
      vertex -2.522730e+000  1.800000e+001 -1.094683e+000
      vertex -2.522730e+000  3.552714e-015 -1.094683e+000
      vertex -2.308145e+000  3.552714e-015 -1.494981e+000
    endloop
  endfacet
  facet normal  8.813511e-001  -0.000000e+000  4.724619e-001
    outer loop
      vertex -2.522730e+000  1.800000e+001 -1.094683e+000
      vertex -2.308145e+000  3.552714e-015 -1.494981e+000
      vertex -2.308145e+000  1.800000e+001 -1.494981e+000
    endloop
  endfacet
  facet normal  7.915660e-001  0.000000e+000  6.110837e-001
    outer loop
      vertex -2.308145e+000  1.800000e+001 -1.494981e+000
      vertex -2.308145e+000  3.552714e-015 -1.494981e+000
      vertex -2.030599e+000  3.552714e-015 -1.854500e+000
    endloop
  endfacet
  facet normal  7.915660e-001  -0.000000e+000  6.110837e-001
    outer loop
      vertex -2.308145e+000  1.800000e+001 -1.494981e+000
      vertex -2.030599e+000  3.552714e-015 -1.854500e+000
      vertex -2.030599e+000  1.800000e+001 -1.854500e+000
    endloop
  endfacet
  facet normal  6.801891e-001  0.000000e+000  7.330368e-001
    outer loop
      vertex -2.030599e+000  1.800000e+001 -1.854500e+000
      vertex -2.030599e+000  3.552714e-015 -1.854500e+000
      vertex -1.697663e+000  3.552714e-015 -2.163432e+000
    endloop
  endfacet
  facet normal  6.801891e-001  -0.000000e+000  7.330368e-001
    outer loop
      vertex -2.030599e+000  1.800000e+001 -1.854500e+000
      vertex -1.697663e+000  3.552714e-015 -2.163432e+000
      vertex -1.697663e+000  1.800000e+001 -2.163432e+000
    endloop
  endfacet
  facet normal  5.502582e-001  0.000000e+000  8.349945e-001
    outer loop
      vertex -1.697663e+000  1.800000e+001 -2.163432e+000
      vertex -1.697663e+000  3.552714e-015 -2.163432e+000
      vertex -1.318420e+000  3.552714e-015 -2.413352e+000
    endloop
  endfacet
  facet normal  5.502582e-001  -0.000000e+000  8.349945e-001
    outer loop
      vertex -1.697663e+000  1.800000e+001 -2.163432e+000
      vertex -1.318420e+000  3.552714e-015 -2.413352e+000
      vertex -1.318420e+000  1.800000e+001 -2.413352e+000
    endloop
  endfacet
  facet normal -4.155979e-001  -0.000000e+000 -9.095484e-001
    outer loop
      vertex -1.773875e+000  0.000000e+000 -3.247056e+000
      vertex -1.773875e+000  4.000000e+000 -3.247056e+000
      vertex -1.293715e+000  0.000000e+000 -3.466454e+000
    endloop
  endfacet
  facet normal -4.155979e-001  0.000000e+000 -9.095484e-001
    outer loop
      vertex -1.293715e+000  0.000000e+000 -3.466454e+000
      vertex -1.773875e+000  4.000000e+000 -3.247056e+000
      vertex -1.293715e+000  4.000000e+000 -3.466454e+000
    endloop
  endfacet
  facet normal -2.819256e-001  -0.000000e+000 -9.594362e-001
    outer loop
      vertex -1.293715e+000  0.000000e+000 -3.466454e+000
      vertex -1.293715e+000  4.000000e+000 -3.466454e+000
      vertex -7.872189e-001  0.000000e+000 -3.615285e+000
    endloop
  endfacet
  facet normal -2.819256e-001  0.000000e+000 -9.594362e-001
    outer loop
      vertex -7.872189e-001  0.000000e+000 -3.615285e+000
      vertex -1.293715e+000  4.000000e+000 -3.466454e+000
      vertex -7.872189e-001  4.000000e+000 -3.615285e+000
    endloop
  endfacet
  facet normal -1.425137e-001  -0.000000e+000 -9.897929e-001
    outer loop
      vertex -7.872189e-001  0.000000e+000 -3.615285e+000
      vertex -7.872189e-001  4.000000e+000 -3.615285e+000
      vertex -2.646974e-001  0.000000e+000 -3.690520e+000
    endloop
  endfacet
  facet normal -1.425137e-001  0.000000e+000 -9.897929e-001
    outer loop
      vertex -2.646974e-001  0.000000e+000 -3.690520e+000
      vertex -7.872189e-001  4.000000e+000 -3.615285e+000
      vertex -2.646974e-001  4.000000e+000 -3.690520e+000
    endloop
  endfacet
  facet normal -2.014258e-004  -0.000000e+000 -1.000000e+000
    outer loop
      vertex -2.646974e-001  0.000000e+000 -3.690520e+000
      vertex -2.646974e-001  4.000000e+000 -3.690520e+000
      vertex  2.632125e-001  0.000000e+000 -3.690626e+000
    endloop
  endfacet
  facet normal -2.014258e-004  0.000000e+000 -1.000000e+000
    outer loop
      vertex  2.632125e-001  0.000000e+000 -3.690626e+000
      vertex -2.646974e-001  4.000000e+000 -3.690520e+000
      vertex  2.632125e-001  4.000000e+000 -3.690626e+000
    endloop
  endfacet
  facet normal  1.421158e-001  0.000000e+000 -9.898500e-001
    outer loop
      vertex  2.632125e-001  0.000000e+000 -3.690626e+000
      vertex  2.632125e-001  4.000000e+000 -3.690626e+000
      vertex  7.857642e-001  0.000000e+000 -3.615602e+000
    endloop
  endfacet
  facet normal  1.421158e-001  0.000000e+000 -9.898500e-001
    outer loop
      vertex  7.857642e-001  0.000000e+000 -3.615602e+000
      vertex  2.632125e-001  4.000000e+000 -3.690626e+000
      vertex  7.857642e-001  4.000000e+000 -3.615602e+000
    endloop
  endfacet
  facet normal  2.815396e-001  0.000000e+000 -9.595497e-001
    outer loop
      vertex  7.857642e-001  0.000000e+000 -3.615602e+000
      vertex  7.857642e-001  4.000000e+000 -3.615602e+000
      vertex  1.292320e+000  0.000000e+000 -3.466974e+000
    endloop
  endfacet
  facet normal  2.815396e-001  0.000000e+000 -9.595497e-001
    outer loop
      vertex  1.292320e+000  0.000000e+000 -3.466974e+000
      vertex  7.857642e-001  4.000000e+000 -3.615602e+000
      vertex  1.292320e+000  4.000000e+000 -3.466974e+000
    endloop
  endfacet
  facet normal  4.152320e-001  0.000000e+000 -9.097155e-001
    outer loop
      vertex  1.292320e+000  0.000000e+000 -3.466974e+000
      vertex  1.292320e+000  4.000000e+000 -3.466974e+000
      vertex  1.772568e+000  0.000000e+000 -3.247769e+000
    endloop
  endfacet
  facet normal  4.152320e-001  0.000000e+000 -9.097155e-001
    outer loop
      vertex  1.772568e+000  0.000000e+000 -3.247769e+000
      vertex  1.292320e+000  4.000000e+000 -3.466974e+000
      vertex  1.772568e+000  4.000000e+000 -3.247769e+000
    endloop
  endfacet
  facet normal  5.404714e-001  0.000000e+000 -8.413623e-001
    outer loop
      vertex  1.772568e+000  0.000000e+000 -3.247769e+000
      vertex  1.772568e+000  4.000000e+000 -3.247769e+000
      vertex  2.216732e+000  0.000000e+000 -2.962449e+000
    endloop
  endfacet
  facet normal  5.404714e-001  0.000000e+000 -8.413623e-001
    outer loop
      vertex  2.216732e+000  0.000000e+000 -2.962449e+000
      vertex  1.772568e+000  4.000000e+000 -3.247769e+000
      vertex  2.216732e+000  4.000000e+000 -2.962449e+000
    endloop
  endfacet
  facet normal  6.547089e-001  0.000000e+000 -7.558811e-001
    outer loop
      vertex  2.216732e+000  0.000000e+000 -2.962449e+000
      vertex  2.216732e+000  4.000000e+000 -2.962449e+000
      vertex  2.615769e+000  0.000000e+000 -2.616821e+000
    endloop
  endfacet
  facet normal  6.547089e-001  0.000000e+000 -7.558811e-001
    outer loop
      vertex  2.615769e+000  0.000000e+000 -2.616821e+000
      vertex  2.216732e+000  4.000000e+000 -2.962449e+000
      vertex  2.615769e+000  4.000000e+000 -2.616821e+000
    endloop
  endfacet
  facet normal  7.556178e-001  0.000000e+000 -6.550128e-001
    outer loop
      vertex  2.615769e+000  0.000000e+000 -2.616821e+000
      vertex  2.615769e+000  4.000000e+000 -2.616821e+000
      vertex  2.961556e+000  0.000000e+000 -2.217923e+000
    endloop
  endfacet
  facet normal  7.556178e-001  0.000000e+000 -6.550128e-001
    outer loop
      vertex  2.961556e+000  0.000000e+000 -2.217923e+000
      vertex  2.615769e+000  4.000000e+000 -2.616821e+000
      vertex  2.961556e+000  4.000000e+000 -2.217923e+000
    endloop
  endfacet
  facet normal  8.411446e-001  0.000000e+000 -5.408102e-001
    outer loop
      vertex  2.961556e+000  0.000000e+000 -2.217923e+000
      vertex  2.961556e+000  4.000000e+000 -2.217923e+000
      vertex  3.247056e+000  0.000000e+000 -1.773875e+000
    endloop
  endfacet
  facet normal  8.411446e-001  0.000000e+000 -5.408102e-001
    outer loop
      vertex  3.247056e+000  0.000000e+000 -1.773875e+000
      vertex  2.961556e+000  4.000000e+000 -2.217923e+000
      vertex  3.247056e+000  4.000000e+000 -1.773875e+000
    endloop
  endfacet
  facet normal  9.095484e-001  0.000000e+000 -4.155979e-001
    outer loop
      vertex  3.247056e+000  0.000000e+000 -1.773875e+000
      vertex  3.247056e+000  4.000000e+000 -1.773875e+000
      vertex  3.466454e+000  0.000000e+000 -1.293715e+000
    endloop
  endfacet
  facet normal  9.095484e-001  0.000000e+000 -4.155979e-001
    outer loop
      vertex  3.466454e+000  0.000000e+000 -1.293715e+000
      vertex  3.247056e+000  4.000000e+000 -1.773875e+000
      vertex  3.466454e+000  4.000000e+000 -1.293715e+000
    endloop
  endfacet
  facet normal  9.594362e-001  0.000000e+000 -2.819256e-001
    outer loop
      vertex  3.466454e+000  0.000000e+000 -1.293715e+000
      vertex  3.466454e+000  4.000000e+000 -1.293715e+000
      vertex  3.615285e+000  0.000000e+000 -7.872189e-001
    endloop
  endfacet
  facet normal  9.594362e-001  0.000000e+000 -2.819256e-001
    outer loop
      vertex  3.615285e+000  0.000000e+000 -7.872189e-001
      vertex  3.466454e+000  4.000000e+000 -1.293715e+000
      vertex  3.615285e+000  4.000000e+000 -7.872189e-001
    endloop
  endfacet
  facet normal  9.897929e-001  0.000000e+000 -1.425137e-001
    outer loop
      vertex  3.615285e+000  0.000000e+000 -7.872189e-001
      vertex  3.615285e+000  4.000000e+000 -7.872189e-001
      vertex  3.690520e+000  0.000000e+000 -2.646974e-001
    endloop
  endfacet
  facet normal  9.897929e-001  0.000000e+000 -1.425137e-001
    outer loop
      vertex  3.690520e+000  0.000000e+000 -2.646974e-001
      vertex  3.615285e+000  4.000000e+000 -7.872189e-001
      vertex  3.690520e+000  4.000000e+000 -2.646974e-001
    endloop
  endfacet
  facet normal  1.000000e+000  0.000000e+000 -2.014258e-004
    outer loop
      vertex  3.690520e+000  0.000000e+000 -2.646974e-001
      vertex  3.690520e+000  4.000000e+000 -2.646974e-001
      vertex  3.690626e+000  0.000000e+000  2.632125e-001
    endloop
  endfacet
  facet normal  1.000000e+000  0.000000e+000 -2.014258e-004
    outer loop
      vertex  3.690626e+000  0.000000e+000  2.632125e-001
      vertex  3.690520e+000  4.000000e+000 -2.646974e-001
      vertex  3.690626e+000  4.000000e+000  2.632125e-001
    endloop
  endfacet
  facet normal  9.898500e-001  0.000000e+000  1.421158e-001
    outer loop
      vertex  3.690626e+000  0.000000e+000  2.632125e-001
      vertex  3.690626e+000  4.000000e+000  2.632125e-001
      vertex  3.615602e+000  0.000000e+000  7.857642e-001
    endloop
  endfacet
  facet normal  9.898500e-001  -0.000000e+000  1.421158e-001
    outer loop
      vertex  3.615602e+000  0.000000e+000  7.857642e-001
      vertex  3.690626e+000  4.000000e+000  2.632125e-001
      vertex  3.615602e+000  4.000000e+000  7.857642e-001
    endloop
  endfacet
  facet normal  9.595497e-001  0.000000e+000  2.815396e-001
    outer loop
      vertex  3.615602e+000  0.000000e+000  7.857642e-001
      vertex  3.615602e+000  4.000000e+000  7.857642e-001
      vertex  3.466974e+000  0.000000e+000  1.292320e+000
    endloop
  endfacet
  facet normal  9.595497e-001  -0.000000e+000  2.815396e-001
    outer loop
      vertex  3.466974e+000  0.000000e+000  1.292320e+000
      vertex  3.615602e+000  4.000000e+000  7.857642e-001
      vertex  3.466974e+000  4.000000e+000  1.292320e+000
    endloop
  endfacet
  facet normal  9.097155e-001  0.000000e+000  4.152320e-001
    outer loop
      vertex  3.466974e+000  0.000000e+000  1.292320e+000
      vertex  3.466974e+000  4.000000e+000  1.292320e+000
      vertex  3.247769e+000  0.000000e+000  1.772568e+000
    endloop
  endfacet
  facet normal  9.097155e-001  -0.000000e+000  4.152320e-001
    outer loop
      vertex  3.247769e+000  0.000000e+000  1.772568e+000
      vertex  3.466974e+000  4.000000e+000  1.292320e+000
      vertex  3.247769e+000  4.000000e+000  1.772568e+000
    endloop
  endfacet
  facet normal  8.413623e-001  0.000000e+000  5.404714e-001
    outer loop
      vertex  3.247769e+000  0.000000e+000  1.772568e+000
      vertex  3.247769e+000  4.000000e+000  1.772568e+000
      vertex  2.962449e+000  0.000000e+000  2.216732e+000
    endloop
  endfacet
  facet normal  8.413623e-001  -0.000000e+000  5.404714e-001
    outer loop
      vertex  2.962449e+000  0.000000e+000  2.216732e+000
      vertex  3.247769e+000  4.000000e+000  1.772568e+000
      vertex  2.962449e+000  4.000000e+000  2.216732e+000
    endloop
  endfacet
  facet normal  7.558811e-001  0.000000e+000  6.547089e-001
    outer loop
      vertex  2.962449e+000  0.000000e+000  2.216732e+000
      vertex  2.962449e+000  4.000000e+000  2.216732e+000
      vertex  2.616821e+000  0.000000e+000  2.615769e+000
    endloop
  endfacet
  facet normal  7.558811e-001  -0.000000e+000  6.547089e-001
    outer loop
      vertex  2.616821e+000  0.000000e+000  2.615769e+000
      vertex  2.962449e+000  4.000000e+000  2.216732e+000
      vertex  2.616821e+000  4.000000e+000  2.615769e+000
    endloop
  endfacet
  facet normal  6.550128e-001  0.000000e+000  7.556178e-001
    outer loop
      vertex  2.616821e+000  0.000000e+000  2.615769e+000
      vertex  2.616821e+000  4.000000e+000  2.615769e+000
      vertex  2.217923e+000  0.000000e+000  2.961556e+000
    endloop
  endfacet
  facet normal  6.550128e-001  -0.000000e+000  7.556178e-001
    outer loop
      vertex  2.217923e+000  0.000000e+000  2.961556e+000
      vertex  2.616821e+000  4.000000e+000  2.615769e+000
      vertex  2.217923e+000  4.000000e+000  2.961556e+000
    endloop
  endfacet
  facet normal  5.408102e-001  0.000000e+000  8.411446e-001
    outer loop
      vertex  2.217923e+000  0.000000e+000  2.961556e+000
      vertex  2.217923e+000  4.000000e+000  2.961556e+000
      vertex  1.773875e+000  0.000000e+000  3.247056e+000
    endloop
  endfacet
  facet normal  5.408102e-001  -0.000000e+000  8.411446e-001
    outer loop
      vertex  1.773875e+000  0.000000e+000  3.247056e+000
      vertex  2.217923e+000  4.000000e+000  2.961556e+000
      vertex  1.773875e+000  4.000000e+000  3.247056e+000
    endloop
  endfacet
  facet normal -7.867028e-001  0.000000e+000  6.173320e-001
    outer loop
      vertex  2.296235e+000  3.552714e-015 -1.513210e+000
      vertex  2.015851e+000  1.800000e+001 -1.870520e+000
      vertex  2.015851e+000  3.552714e-015 -1.870520e+000
    endloop
  endfacet
  facet normal -6.743633e-001  0.000000e+000  7.383997e-001
    outer loop
      vertex  2.015851e+000  3.552714e-015 -1.870520e+000
      vertex  2.015851e+000  1.800000e+001 -1.870520e+000
      vertex  1.680480e+000  1.800000e+001 -2.176806e+000
    endloop
  endfacet
  facet normal -6.743633e-001  0.000000e+000  7.383997e-001
    outer loop
      vertex  2.015851e+000  3.552714e-015 -1.870520e+000
      vertex  1.680480e+000  1.800000e+001 -2.176806e+000
      vertex  1.680480e+000  3.552714e-015 -2.176806e+000
    endloop
  endfacet
  facet normal -5.436295e-001  0.000000e+000  8.393252e-001
    outer loop
      vertex  1.680480e+000  3.552714e-015 -2.176806e+000
      vertex  1.680480e+000  1.800000e+001 -2.176806e+000
      vertex  1.299270e+000  1.800000e+001 -2.423716e+000
    endloop
  endfacet
  facet normal -5.436295e-001  0.000000e+000  8.393252e-001
    outer loop
      vertex  1.680480e+000  3.552714e-015 -2.176806e+000
      vertex  1.299270e+000  1.800000e+001 -2.423716e+000
      vertex  1.299270e+000  3.552714e-015 -2.423716e+000
    endloop
  endfacet
  facet normal -3.980670e-001  0.000000e+000  9.173564e-001
    outer loop
      vertex  1.299270e+000  3.552714e-015 -2.423716e+000
      vertex  1.299270e+000  1.800000e+001 -2.423716e+000
      vertex  8.826191e-001  1.800000e+001 -2.604512e+000
    endloop
  endfacet
  facet normal -3.980670e-001  0.000000e+000  9.173564e-001
    outer loop
      vertex  1.299270e+000  3.552714e-015 -2.423716e+000
      vertex  8.826191e-001  1.800000e+001 -2.604512e+000
      vertex  8.826191e-001  3.552714e-015 -2.604512e+000
    endloop
  endfacet
  facet normal -2.416457e-001  0.000000e+000  9.703646e-001
    outer loop
      vertex  8.826191e-001  3.552714e-015 -2.604512e+000
      vertex  8.826191e-001  1.800000e+001 -2.604512e+000
      vertex  4.418927e-001  1.800000e+001 -2.714264e+000
    endloop
  endfacet
  facet normal -2.416457e-001  0.000000e+000  9.703646e-001
    outer loop
      vertex  8.826191e-001  3.552714e-015 -2.604512e+000
      vertex  4.418927e-001  1.800000e+001 -2.714264e+000
      vertex  4.418927e-001  3.552714e-015 -2.714264e+000
    endloop
  endfacet
  facet normal -7.863323e-002  0.000000e+000  9.969036e-001
    outer loop
      vertex  4.418927e-001  3.552714e-015 -2.714264e+000
      vertex  4.418927e-001  1.800000e+001 -2.714264e+000
      vertex -1.088737e-002  1.800000e+001 -2.749979e+000
    endloop
  endfacet
  facet normal -7.863323e-002  0.000000e+000  9.969036e-001
    outer loop
      vertex  4.418927e-001  3.552714e-015 -2.714264e+000
      vertex -1.088737e-002  1.800000e+001 -2.749979e+000
      vertex -1.088737e-002  3.552714e-015 -2.749979e+000
    endloop
  endfacet
  facet normal  8.652460e-002  -0.000000e+000  9.962497e-001
    outer loop
      vertex -1.088737e-002  3.552714e-015 -2.749979e+000
      vertex -1.088737e-002  1.800000e+001 -2.749979e+000
      vertex -4.633705e-001  1.800000e+001 -2.710680e+000
    endloop
  endfacet
  facet normal  8.652460e-002  0.000000e+000  9.962497e-001
    outer loop
      vertex -1.088737e-002  3.552714e-015 -2.749979e+000
      vertex -4.633705e-001  1.800000e+001 -2.710680e+000
      vertex -4.633705e-001  3.552714e-015 -2.710680e+000
    endloop
  endfacet
  facet normal  2.493213e-001  -0.000000e+000  9.684208e-001
    outer loop
      vertex -4.633705e-001  3.552714e-015 -2.710680e+000
      vertex -4.633705e-001  1.800000e+001 -2.710680e+000
      vertex -9.032140e-001  1.800000e+001 -2.597442e+000
    endloop
  endfacet
  facet normal  2.493213e-001  0.000000e+000  9.684208e-001
    outer loop
      vertex -4.633705e-001  3.552714e-015 -2.710680e+000
      vertex -9.032140e-001  1.800000e+001 -2.597442e+000
      vertex -9.032140e-001  3.552714e-015 -2.597442e+000
    endloop
  endfacet
  facet normal  4.053180e-001  -0.000000e+000  9.141758e-001
    outer loop
      vertex -9.032140e-001  3.552714e-015 -2.597442e+000
      vertex -9.032140e-001  1.800000e+001 -2.597442e+000
      vertex -1.318420e+000  1.800000e+001 -2.413352e+000
    endloop
  endfacet
  facet normal  4.053180e-001  0.000000e+000  9.141758e-001
    outer loop
      vertex -9.032140e-001  3.552714e-015 -2.597442e+000
      vertex -1.318420e+000  1.800000e+001 -2.413352e+000
      vertex -1.318420e+000  3.552714e-015 -2.413352e+000
    endloop
  endfacet
  facet normal -7.867028e-001  0.000000e+000  6.173320e-001
    outer loop
      vertex  2.015851e+000  1.800000e+001 -1.870520e+000
      vertex  2.296235e+000  3.552714e-015 -1.513210e+000
      vertex  2.296235e+000  1.800000e+001 -1.513210e+000
    endloop
  endfacet
  facet normal -8.775826e-001  0.000000e+000  4.794257e-001
    outer loop
      vertex  2.296235e+000  1.800000e+001 -1.513210e+000
      vertex  2.296235e+000  3.552714e-015 -1.513210e+000
      vertex  2.513983e+000  3.552714e-015 -1.114624e+000
    endloop
  endfacet
  facet normal -8.775826e-001  0.000000e+000  4.794257e-001
    outer loop
      vertex  2.296235e+000  1.800000e+001 -1.513210e+000
      vertex  2.513983e+000  3.552714e-015 -1.114624e+000
      vertex  2.513983e+000  1.800000e+001 -1.114624e+000
    endloop
  endfacet
  facet normal -9.445243e-001  0.000000e+000  3.284416e-001
    outer loop
      vertex  2.513983e+000  1.800000e+001 -1.114624e+000
      vertex  2.513983e+000  3.552714e-015 -1.114624e+000
      vertex  2.663157e+000  3.552714e-015 -6.856340e-001
    endloop
  endfacet
  facet normal -9.445243e-001  0.000000e+000  3.284416e-001
    outer loop
      vertex  2.513983e+000  1.800000e+001 -1.114624e+000
      vertex  2.663157e+000  3.552714e-015 -6.856340e-001
      vertex  2.663157e+000  1.800000e+001 -6.856340e-001
    endloop
  endfacet
  facet normal -9.857020e-001  0.000000e+000  1.684980e-001
    outer loop
      vertex  2.663157e+000  1.800000e+001 -6.856340e-001
      vertex  2.663157e+000  3.552714e-015 -6.856340e-001
      vertex  2.739687e+000  3.552714e-015 -2.379416e-001
    endloop
  endfacet
  facet normal -9.857020e-001  0.000000e+000  1.684980e-001
    outer loop
      vertex  2.663157e+000  1.800000e+001 -6.856340e-001
      vertex  2.739687e+000  3.552714e-015 -2.379416e-001
      vertex  2.739687e+000  1.800000e+001 -2.379416e-001
    endloop
  endfacet
  facet normal -9.999922e-001  0.000000e+000  3.959064e-003
    outer loop
      vertex  2.739687e+000  1.800000e+001 -2.379416e-001
      vertex  2.739687e+000  3.552714e-015 -2.379416e-001
      vertex  2.741485e+000  3.552714e-015  2.162412e-001
    endloop
  endfacet
  facet normal -9.999922e-001  0.000000e+000  3.959064e-003
    outer loop
      vertex  2.739687e+000  1.800000e+001 -2.379416e-001
      vertex  2.741485e+000  3.552714e-015  2.162412e-001
      vertex  2.741485e+000  1.800000e+001  2.162412e-001
    endloop
  endfacet
  facet normal -9.870053e-001  -0.000000e+000 -1.606880e-001
    outer loop
      vertex  2.741485e+000  1.800000e+001  2.162412e-001
      vertex  2.741485e+000  3.552714e-015  2.162412e-001
      vertex  2.668503e+000  3.552714e-015  6.645256e-001
    endloop
  endfacet
  facet normal -9.870053e-001  0.000000e+000 -1.606880e-001
    outer loop
      vertex  2.741485e+000  1.800000e+001  2.162412e-001
      vertex  2.668503e+000  3.552714e-015  6.645256e-001
      vertex  2.668503e+000  1.800000e+001  6.645256e-001
    endloop
  endfacet
  facet normal -9.470953e-001  -0.000000e+000 -3.209524e-001
    outer loop
      vertex  2.668503e+000  1.800000e+001  6.645256e-001
      vertex  2.668503e+000  3.552714e-015  6.645256e-001
      vertex  2.522730e+000  3.552714e-015  1.094683e+000
    endloop
  endfacet
  facet normal -9.470953e-001  0.000000e+000 -3.209524e-001
    outer loop
      vertex  2.668503e+000  1.800000e+001  6.645256e-001
      vertex  2.522730e+000  3.552714e-015  1.094683e+000
      vertex  2.522730e+000  1.800000e+001  1.094683e+000
    endloop
  endfacet
  facet normal -8.813511e-001  -0.000000e+000 -4.724619e-001
    outer loop
      vertex  2.522730e+000  1.800000e+001  1.094683e+000
      vertex  2.522730e+000  3.552714e-015  1.094683e+000
      vertex  2.308145e+000  3.552714e-015  1.494981e+000
    endloop
  endfacet
  facet normal -8.813511e-001  0.000000e+000 -4.724619e-001
    outer loop
      vertex  2.522730e+000  1.800000e+001  1.094683e+000
      vertex  2.308145e+000  3.552714e-015  1.494981e+000
      vertex  2.308145e+000  1.800000e+001  1.494981e+000
    endloop
  endfacet
  facet normal -7.915660e-001  -0.000000e+000 -6.110837e-001
    outer loop
      vertex  2.308145e+000  1.800000e+001  1.494981e+000
      vertex  2.308145e+000  3.552714e-015  1.494981e+000
      vertex  2.030599e+000  3.552714e-015  1.854500e+000
    endloop
  endfacet
  facet normal -7.915660e-001  0.000000e+000 -6.110837e-001
    outer loop
      vertex  2.308145e+000  1.800000e+001  1.494981e+000
      vertex  2.030599e+000  3.552714e-015  1.854500e+000
      vertex  2.030599e+000  1.800000e+001  1.854500e+000
    endloop
  endfacet
  facet normal -6.801891e-001  -0.000000e+000 -7.330368e-001
    outer loop
      vertex  2.030599e+000  1.800000e+001  1.854500e+000
      vertex  2.030599e+000  3.552714e-015  1.854500e+000
      vertex  1.697663e+000  3.552714e-015  2.163432e+000
    endloop
  endfacet
  facet normal -6.801891e-001  0.000000e+000 -7.330368e-001
    outer loop
      vertex  2.030599e+000  1.800000e+001  1.854500e+000
      vertex  1.697663e+000  3.552714e-015  2.163432e+000
      vertex  1.697663e+000  1.800000e+001  2.163432e+000
    endloop
  endfacet
  facet normal -5.502582e-001  -0.000000e+000 -8.349945e-001
    outer loop
      vertex  1.697663e+000  1.800000e+001  2.163432e+000
      vertex  1.697663e+000  3.552714e-015  2.163432e+000
      vertex  1.318420e+000  3.552714e-015  2.413352e+000
    endloop
  endfacet
  facet normal -5.502582e-001  0.000000e+000 -8.349945e-001
    outer loop
      vertex  1.697663e+000  1.800000e+001  2.163432e+000
      vertex  1.318420e+000  3.552714e-015  2.413352e+000
      vertex  1.318420e+000  1.800000e+001  2.413352e+000
    endloop
  endfacet
endsolid CATIA STL
